<svg width="24" height="24" viewBox="0 0 24 24" fill="none" xmlns="http://www.w3.org/2000/svg">
<circle cx="12" cy="12" r="9" fill="white"/>
<path d="M13.3012 20.8933V14.8173L15.4786 14.8132L15.6854 13.5612C15.7985 12.8728 15.8905 12.3067 15.8887 12.3026C15.887 12.2993 15.3034 12.2969 14.5928 12.2969H13.3003L13.3038 11.3768C13.306 10.565 13.3052 10.442 13.3319 10.3245C13.338 10.2978 13.3454 10.2714 13.3547 10.2374C13.4843 9.76183 13.8366 9.45514 14.365 9.35644C14.5612 9.31974 14.6085 9.31811 15.3192 9.31403L16 9.30995V7.16803L15.9763 7.16313C15.9124 7.1509 15.497 7.09869 15.2859 7.07667C14.7522 7.02202 14.3842 7.00082 13.9496 7C13.6026 7 13.4966 7.00571 13.232 7.04078C12.984 7.07341 12.7772 7.11746 12.5625 7.18352C11.2613 7.58401 10.4964 8.58238 10.3834 10.0253C10.3781 10.0946 10.3746 10.5661 10.3746 11.2178V12.2969H8V14.8173H10.3746V17.8597C10.3746 19.4584 10.373 20.7801 10.3713 20.8941C10.8477 20.9638 11.3361 21 11.8335 21C12.3329 21 12.8231 20.9635 13.3012 20.8933Z" fill="#00CC43"/>
</svg>
