<svg width="510" height="458" viewBox="0 0 510 458" fill="none" xmlns="http://www.w3.org/2000/svg">
<path d="M426.142 68.9032L260.247 11.8771C256.85 10.7076 253.154 10.7076 249.757 11.8771L83.8618 68.9032C80.5164 70.0926 77.6285 72.2963 75.5958 75.2041C73.5631 78.1159 72.4852 81.5845 72.517 85.1328V272.637C72.4056 283.517 74.7127 294.284 79.2753 304.161C126.469 403.511 249.641 456.35 249.641 456.35V456.354C251.375 456.887 253.181 457.177 254.995 457.205H260.699C262.458 457.177 264.204 456.887 265.882 456.354C265.882 456.354 385.495 403.397 431.095 303.819C435.403 294.161 437.583 283.691 437.484 273.114V85.1418C437.511 81.5936 436.438 78.125 434.405 75.2132C432.372 72.3054 429.48 70.1017 426.139 68.9123L426.142 68.9032Z" fill="#CAFC83"/>
<rect y="6.10352e-05" width="256" height="216" rx="12" fill="#00CC43"/>
<path d="M26.2628 36.0001H24.2855L27.2983 27.2728H29.6761L32.6847 36.0001H30.7074L28.5213 29.2671H28.4531L26.2628 36.0001ZM26.1392 32.5697H30.8097V34.01H26.1392V32.5697ZM33.7351 36.0001V27.2728H35.5504V30.554H35.6058C35.6854 30.3779 35.8004 30.1989 35.951 30.0171C36.1044 29.8324 36.3033 29.679 36.5476 29.5569C36.7947 29.4319 37.1016 29.3694 37.468 29.3694C37.9453 29.3694 38.3857 29.4944 38.7891 29.7444C39.1925 29.9915 39.5149 30.3651 39.7564 30.8651C39.9979 31.3623 40.1186 31.9859 40.1186 32.7359C40.1186 33.466 40.0007 34.0824 39.7649 34.5853C39.532 35.0853 39.2138 35.4645 38.8104 35.7231C38.4098 35.9788 37.9609 36.1066 37.4638 36.1066C37.1115 36.1066 36.8118 36.0484 36.5646 35.9319C36.3203 35.8154 36.12 35.6691 35.9638 35.493C35.8075 35.314 35.6882 35.1336 35.6058 34.9518H35.5249V36.0001H33.7351ZM35.5121 32.7273C35.5121 33.1165 35.5661 33.456 35.674 33.7458C35.782 34.0356 35.9382 34.2614 36.1428 34.4234C36.3473 34.5824 36.5959 34.662 36.8885 34.662C37.1839 34.662 37.4339 34.581 37.6385 34.4191C37.843 34.2543 37.9979 34.027 38.103 33.7373C38.2109 33.4447 38.2649 33.108 38.2649 32.7273C38.2649 32.3495 38.2124 32.0171 38.1072 31.7302C38.0021 31.4432 37.8473 31.2188 37.6428 31.0569C37.4382 30.8949 37.1868 30.814 36.8885 30.814C36.593 30.814 36.343 30.8921 36.1385 31.0484C35.9368 31.2046 35.782 31.4262 35.674 31.7131C35.5661 32.0001 35.5121 32.3381 35.5121 32.7273ZM44.2873 36.1279C43.6254 36.1279 43.0529 35.9873 42.57 35.706C42.0898 35.4219 41.7191 35.027 41.4577 34.5214C41.1964 34.0128 41.0657 33.4234 41.0657 32.7529C41.0657 32.0768 41.1964 31.4859 41.4577 30.9802C41.7191 30.4717 42.0898 30.0768 42.57 29.7955C43.0529 29.5114 43.6254 29.3694 44.2873 29.3694C44.9492 29.3694 45.5202 29.5114 46.0004 29.7955C46.4833 30.0768 46.8555 30.4717 47.1168 30.9802C47.3782 31.4859 47.5089 32.0768 47.5089 32.7529C47.5089 33.4234 47.3782 34.0128 47.1168 34.5214C46.8555 35.027 46.4833 35.4219 46.0004 35.706C45.5202 35.9873 44.9492 36.1279 44.2873 36.1279ZM44.2958 34.7217C44.5969 34.7217 44.8484 34.6364 45.0501 34.466C45.2518 34.2927 45.4038 34.0569 45.506 33.7586C45.6112 33.4603 45.6637 33.1208 45.6637 32.7401C45.6637 32.3594 45.6112 32.0199 45.506 31.7217C45.4038 31.4234 45.2518 31.1876 45.0501 31.0143C44.8484 30.841 44.5969 30.7543 44.2958 30.7543C43.9918 30.7543 43.7362 30.841 43.5288 31.0143C43.3242 31.1876 43.1694 31.4234 43.0643 31.7217C42.962 32.0199 42.9109 32.3594 42.9109 32.7401C42.9109 33.1208 42.962 33.4603 43.0643 33.7586C43.1694 34.0569 43.3242 34.2927 43.5288 34.466C43.7362 34.6364 43.9918 34.7217 44.2958 34.7217ZM48.6893 36.0001V29.4546H50.4492V30.5967H50.5174C50.6367 30.1904 50.837 29.8836 51.1183 29.6762C51.3995 29.466 51.7234 29.3609 52.0898 29.3609C52.1808 29.3609 52.2788 29.3665 52.3839 29.3779C52.489 29.3893 52.5813 29.4049 52.6609 29.4248V31.0356C52.5756 31.01 52.4577 30.9873 52.3072 30.9674C52.1566 30.9475 52.0188 30.9376 51.8938 30.9376C51.6268 30.9376 51.3881 30.9958 51.1779 31.1123C50.9705 31.2259 50.8058 31.385 50.6836 31.5895C50.5643 31.7941 50.5046 32.0299 50.5046 32.2969V36.0001H48.6893ZM57.4091 29.4546V30.8182H53.4673V29.4546H57.4091ZM54.3622 27.8864H56.1776V33.9887C56.1776 34.1563 56.2031 34.287 56.2543 34.3807C56.3054 34.4717 56.3764 34.5356 56.4673 34.5725C56.5611 34.6094 56.669 34.6279 56.7912 34.6279C56.8764 34.6279 56.9616 34.6208 57.0469 34.6066C57.1321 34.5895 57.1974 34.5768 57.2429 34.5682L57.5284 35.9191C57.4375 35.9475 57.3097 35.9802 57.1449 36.0171C56.9801 36.0569 56.7798 36.081 56.544 36.0895C56.1065 36.1066 55.723 36.0484 55.3935 35.9148C55.0668 35.7813 54.8125 35.5739 54.6307 35.2927C54.4489 35.0114 54.3594 34.6563 54.3622 34.2273V27.8864ZM64.8505 29.4546V30.8182H60.9087V29.4546H64.8505ZM61.8036 27.8864H63.619V33.9887C63.619 34.1563 63.6445 34.287 63.6957 34.3807C63.7468 34.4717 63.8178 34.5356 63.9087 34.5725C64.0025 34.6094 64.1104 34.6279 64.2326 34.6279C64.3178 34.6279 64.4031 34.6208 64.4883 34.6066C64.5735 34.5895 64.6388 34.5768 64.6843 34.5682L64.9698 35.9191C64.8789 35.9475 64.7511 35.9802 64.5863 36.0171C64.4215 36.0569 64.2212 36.081 63.9854 36.0895C63.5479 36.1066 63.1644 36.0484 62.8349 35.9148C62.5082 35.7813 62.2539 35.5739 62.0721 35.2927C61.8903 35.0114 61.8008 34.6563 61.8036 34.2273V27.8864ZM66.033 36.0001V29.4546H67.793V30.5967H67.8612C67.9805 30.1904 68.1808 29.8836 68.462 29.6762C68.7433 29.466 69.0671 29.3609 69.4336 29.3609C69.5245 29.3609 69.6225 29.3665 69.7276 29.3779C69.8327 29.3893 69.9251 29.4049 70.0046 29.4248V31.0356C69.9194 31.01 69.8015 30.9873 69.6509 30.9674C69.5004 30.9475 69.3626 30.9376 69.2376 30.9376C68.9705 30.9376 68.7319 30.9958 68.5217 31.1123C68.3143 31.2259 68.1495 31.385 68.0273 31.5895C67.908 31.7941 67.8484 32.0299 67.8484 32.2969V36.0001H66.033ZM72.6222 36.1236C72.2045 36.1236 71.8324 36.0512 71.5057 35.9063C71.179 35.7586 70.9205 35.5413 70.7301 35.2543C70.5426 34.9645 70.4489 34.6038 70.4489 34.1719C70.4489 33.8083 70.5156 33.5029 70.6491 33.2557C70.7827 33.0086 70.9645 32.8097 71.1946 32.6592C71.4247 32.5086 71.6861 32.3949 71.9787 32.3182C72.2741 32.2415 72.5838 32.1876 72.9077 32.1563C73.2884 32.1165 73.5952 32.0796 73.8281 32.0455C74.0611 32.0086 74.2301 31.9546 74.3352 31.8836C74.4403 31.8126 74.4929 31.7074 74.4929 31.5682V31.5427C74.4929 31.2728 74.4077 31.064 74.2372 30.9163C74.0696 30.7685 73.831 30.6947 73.5213 30.6947C73.1946 30.6947 72.9347 30.7671 72.7415 30.912C72.5483 31.054 72.4205 31.233 72.358 31.4489L70.679 31.3126C70.7642 30.9148 70.9318 30.5711 71.1818 30.2813C71.4318 29.9887 71.7543 29.7643 72.1491 29.608C72.5469 29.4489 73.0071 29.3694 73.5298 29.3694C73.8935 29.3694 74.2415 29.412 74.5739 29.4972C74.9091 29.5824 75.206 29.7145 75.4645 29.8935C75.7259 30.0725 75.9318 30.3026 76.0824 30.5839C76.233 30.8623 76.3082 31.1961 76.3082 31.5853V36.0001H74.5866V35.0924H74.5355C74.4304 35.2969 74.2898 35.4773 74.1136 35.6336C73.9375 35.787 73.7259 35.9077 73.4787 35.9958C73.2315 36.081 72.946 36.1236 72.6222 36.1236ZM73.142 34.8708C73.4091 34.8708 73.6449 34.8182 73.8494 34.7131C74.054 34.6052 74.2145 34.4603 74.331 34.2785C74.4474 34.0967 74.5057 33.8907 74.5057 33.6606V32.966C74.4489 33.0029 74.3707 33.037 74.2713 33.0682C74.1747 33.0967 74.0653 33.1236 73.9432 33.1492C73.821 33.1719 73.6989 33.1932 73.5767 33.2131C73.4545 33.2302 73.3438 33.2458 73.2443 33.26C73.0313 33.2913 72.8452 33.341 72.6861 33.4092C72.527 33.4773 72.4034 33.5697 72.3153 33.6861C72.2273 33.7998 72.1832 33.9418 72.1832 34.1123C72.1832 34.3594 72.2727 34.5484 72.4517 34.679C72.6335 34.8069 72.8636 34.8708 73.142 34.8708ZM79.532 32.216V36.0001H77.7166V29.4546H79.4467V30.6094H79.5234C79.6683 30.2288 79.9112 29.9276 80.2521 29.706C80.593 29.4816 81.0064 29.3694 81.4922 29.3694C81.9467 29.3694 82.343 29.4688 82.6811 29.6677C83.0192 29.8665 83.282 30.1506 83.4695 30.5199C83.657 30.8864 83.7507 31.3239 83.7507 31.8324V36.0001H81.9354V32.1563C81.9382 31.7557 81.8359 31.4432 81.6286 31.2188C81.4212 30.9915 81.1357 30.8779 80.772 30.8779C80.5277 30.8779 80.3118 30.9305 80.1243 31.0356C79.9396 31.1407 79.7947 31.2941 79.6896 31.4958C79.5874 31.6947 79.5348 31.9347 79.532 32.216ZM90.6275 31.3211L88.9656 31.4234C88.9371 31.2813 88.8761 31.1535 88.7823 31.0398C88.6886 30.9234 88.565 30.831 88.4116 30.7628C88.261 30.6918 88.0806 30.6563 87.8704 30.6563C87.5891 30.6563 87.3519 30.716 87.1587 30.8353C86.9656 30.9518 86.869 31.108 86.869 31.304C86.869 31.4603 86.9315 31.5924 87.0565 31.7003C87.1815 31.8083 87.396 31.8949 87.6999 31.9603L88.8846 32.1989C89.521 32.3296 89.9954 32.5398 90.3079 32.8296C90.6204 33.1194 90.7766 33.5001 90.7766 33.9717C90.7766 34.4006 90.6502 34.777 90.3974 35.1009C90.1474 35.4248 89.8036 35.6776 89.3661 35.8594C88.9315 36.0384 88.43 36.1279 87.8619 36.1279C86.9954 36.1279 86.305 35.9475 85.7908 35.5867C85.2795 35.2231 84.9798 34.7288 84.8917 34.1038L86.6772 34.01C86.7312 34.2742 86.8619 34.4759 87.0692 34.6151C87.2766 34.7515 87.5423 34.8197 87.8661 34.8197C88.1843 34.8197 88.44 34.7586 88.6332 34.6364C88.8292 34.5114 88.9286 34.3509 88.9315 34.1549C88.9286 33.9901 88.859 33.8552 88.7227 33.7501C88.5863 33.6421 88.3761 33.5597 88.092 33.5029L86.9585 33.277C86.3192 33.1492 85.8434 32.9276 85.5309 32.6123C85.2212 32.2969 85.0664 31.8949 85.0664 31.4063C85.0664 30.9859 85.18 30.6236 85.4073 30.3197C85.6374 30.0157 85.9599 29.7813 86.3746 29.6165C86.7923 29.4518 87.2809 29.3694 87.8406 29.3694C88.6673 29.3694 89.3178 29.5441 89.7923 29.8935C90.2695 30.243 90.5479 30.7188 90.6275 31.3211ZM93.7862 36.1236C93.3686 36.1236 92.9964 36.0512 92.6697 35.9063C92.343 35.7586 92.0845 35.5413 91.8942 35.2543C91.7067 34.9645 91.6129 34.6038 91.6129 34.1719C91.6129 33.8083 91.6797 33.5029 91.8132 33.2557C91.9467 33.0086 92.1286 32.8097 92.3587 32.6592C92.5888 32.5086 92.8501 32.3949 93.1428 32.3182C93.4382 32.2415 93.7479 32.1876 94.0717 32.1563C94.4524 32.1165 94.7592 32.0796 94.9922 32.0455C95.2251 32.0086 95.3942 31.9546 95.4993 31.8836C95.6044 31.8126 95.657 31.7074 95.657 31.5682V31.5427C95.657 31.2728 95.5717 31.064 95.4013 30.9163C95.2337 30.7685 94.995 30.6947 94.6854 30.6947C94.3587 30.6947 94.0987 30.7671 93.9055 30.912C93.7124 31.054 93.5845 31.233 93.522 31.4489L91.843 31.3126C91.9283 30.9148 92.0959 30.5711 92.3459 30.2813C92.5959 29.9887 92.9183 29.7643 93.3132 29.608C93.7109 29.4489 94.1712 29.3694 94.6939 29.3694C95.0575 29.3694 95.4055 29.412 95.7379 29.4972C96.0732 29.5824 96.37 29.7145 96.6286 29.8935C96.8899 30.0725 97.0959 30.3026 97.2464 30.5839C97.397 30.8623 97.4723 31.1961 97.4723 31.5853V36.0001H95.7507V35.0924H95.6996C95.5945 35.2969 95.4538 35.4773 95.2777 35.6336C95.1016 35.787 94.8899 35.9077 94.6428 35.9958C94.3956 36.081 94.1101 36.1236 93.7862 36.1236ZM94.3061 34.8708C94.5732 34.8708 94.8089 34.8182 95.0135 34.7131C95.218 34.6052 95.3786 34.4603 95.495 34.2785C95.6115 34.0967 95.6697 33.8907 95.6697 33.6606V32.966C95.6129 33.0029 95.5348 33.037 95.4354 33.0682C95.3388 33.0967 95.2294 33.1236 95.1072 33.1492C94.9851 33.1719 94.8629 33.1932 94.7408 33.2131C94.6186 33.2302 94.5078 33.2458 94.4084 33.26C94.1953 33.2913 94.0092 33.341 93.8501 33.4092C93.6911 33.4773 93.5675 33.5697 93.4794 33.6861C93.3913 33.7998 93.3473 33.9418 93.3473 34.1123C93.3473 34.3594 93.4368 34.5484 93.6158 34.679C93.7976 34.8069 94.0277 34.8708 94.3061 34.8708ZM101.838 36.1279C101.168 36.1279 100.591 35.9859 100.108 35.7018C99.6278 35.4148 99.2585 35.0171 99 34.5086C98.7443 34.0001 98.6165 33.4148 98.6165 32.7529C98.6165 32.0824 98.7457 31.4944 99.0043 30.9887C99.2656 30.4802 99.6364 30.0839 100.116 29.7998C100.597 29.5128 101.168 29.3694 101.83 29.3694C102.401 29.3694 102.901 29.4731 103.33 29.6805C103.759 29.8878 104.098 30.179 104.348 30.554C104.598 30.929 104.736 31.3694 104.761 31.8751H103.048C103 31.5484 102.872 31.2856 102.665 31.0867C102.46 30.885 102.192 30.7842 101.859 30.7842C101.578 30.7842 101.332 30.8609 101.122 31.0143C100.915 31.1648 100.753 31.385 100.636 31.6748C100.52 31.9645 100.462 32.3154 100.462 32.7273C100.462 33.1449 100.518 33.5001 100.632 33.7927C100.749 34.0853 100.912 34.3083 101.122 34.4617C101.332 34.6151 101.578 34.6918 101.859 34.6918C102.067 34.6918 102.253 34.6492 102.418 34.564C102.585 34.4788 102.723 34.3552 102.831 34.1932C102.942 34.0285 103.014 33.831 103.048 33.6009H104.761C104.733 34.1009 104.597 34.5413 104.352 34.9219C104.111 35.2998 103.777 35.5952 103.351 35.8083C102.925 36.0214 102.42 36.1279 101.838 36.1279ZM109.405 29.4546V30.8182H105.463V29.4546H109.405ZM106.358 27.8864H108.174V33.9887C108.174 34.1563 108.199 34.287 108.25 34.3807C108.301 34.4717 108.373 34.5356 108.463 34.5725C108.557 34.6094 108.665 34.6279 108.787 34.6279C108.873 34.6279 108.958 34.6208 109.043 34.6066C109.128 34.5895 109.194 34.5768 109.239 34.5682L109.525 35.9191C109.434 35.9475 109.306 35.9802 109.141 36.0171C108.976 36.0569 108.776 36.081 108.54 36.0895C108.103 36.1066 107.719 36.0484 107.39 35.9148C107.063 35.7813 106.809 35.5739 106.627 35.2927C106.445 35.0114 106.355 34.6563 106.358 34.2273V27.8864ZM110.588 36.0001V29.4546H112.403V36.0001H110.588ZM111.5 28.6109C111.23 28.6109 110.998 28.5214 110.805 28.3424C110.615 28.1606 110.52 27.9432 110.52 27.6904C110.52 27.4404 110.615 27.2259 110.805 27.0469C110.998 26.8651 111.23 26.7742 111.5 26.7742C111.77 26.7742 112 26.8651 112.19 27.0469C112.383 27.2259 112.48 27.4404 112.48 27.6904C112.48 27.9432 112.383 28.1606 112.19 28.3424C112 28.5214 111.77 28.6109 111.5 28.6109ZM116.815 36.1279C116.153 36.1279 115.58 35.9873 115.097 35.706C114.617 35.4219 114.246 35.027 113.985 34.5214C113.724 34.0128 113.593 33.4234 113.593 32.7529C113.593 32.0768 113.724 31.4859 113.985 30.9802C114.246 30.4717 114.617 30.0768 115.097 29.7955C115.58 29.5114 116.153 29.3694 116.815 29.3694C117.477 29.3694 118.048 29.5114 118.528 29.7955C119.011 30.0768 119.383 30.4717 119.644 30.9802C119.906 31.4859 120.036 32.0768 120.036 32.7529C120.036 33.4234 119.906 34.0128 119.644 34.5214C119.383 35.027 119.011 35.4219 118.528 35.706C118.048 35.9873 117.477 36.1279 116.815 36.1279ZM116.823 34.7217C117.124 34.7217 117.376 34.6364 117.577 34.466C117.779 34.2927 117.931 34.0569 118.033 33.7586C118.138 33.4603 118.191 33.1208 118.191 32.7401C118.191 32.3594 118.138 32.0199 118.033 31.7217C117.931 31.4234 117.779 31.1876 117.577 31.0143C117.376 30.841 117.124 30.7543 116.823 30.7543C116.519 30.7543 116.263 30.841 116.056 31.0143C115.852 31.1876 115.697 31.4234 115.592 31.7217C115.489 32.0199 115.438 32.3594 115.438 32.7401C115.438 33.1208 115.489 33.4603 115.592 33.7586C115.697 34.0569 115.852 34.2927 116.056 34.466C116.263 34.6364 116.519 34.7217 116.823 34.7217ZM123.032 32.216V36.0001H121.217V29.4546H122.947V30.6094H123.023C123.168 30.2288 123.411 29.9276 123.752 29.706C124.093 29.4816 124.506 29.3694 124.992 29.3694C125.447 29.3694 125.843 29.4688 126.181 29.6677C126.519 29.8665 126.782 30.1506 126.969 30.5199C127.157 30.8864 127.251 31.3239 127.251 31.8324V36.0001H125.435V32.1563C125.438 31.7557 125.336 31.4432 125.129 31.2188C124.921 30.9915 124.636 30.8779 124.272 30.8779C124.028 30.8779 123.812 30.9305 123.624 31.0356C123.44 31.1407 123.295 31.2941 123.19 31.4958C123.087 31.6947 123.035 31.9347 123.032 32.216ZM131.459 36.0001V29.4546H133.274V36.0001H131.459ZM132.371 28.6109C132.101 28.6109 131.869 28.5214 131.676 28.3424C131.486 28.1606 131.391 27.9432 131.391 27.6904C131.391 27.4404 131.486 27.2259 131.676 27.0469C131.869 26.8651 132.101 26.7742 132.371 26.7742C132.641 26.7742 132.871 26.8651 133.061 27.0469C133.254 27.2259 133.351 27.4404 133.351 27.6904C133.351 27.9432 133.254 28.1606 133.061 28.3424C132.871 28.5214 132.641 28.6109 132.371 28.6109ZM138.248 29.4546V30.8182H134.208V29.4546H138.248ZM135.133 36.0001V28.9816C135.133 28.5072 135.225 28.1137 135.41 27.8012C135.598 27.4887 135.853 27.2543 136.177 27.0981C136.501 26.9418 136.869 26.8637 137.281 26.8637C137.559 26.8637 137.814 26.885 138.044 26.9276C138.277 26.9702 138.45 27.0086 138.564 27.0427L138.24 28.4063C138.169 28.3836 138.081 28.3623 137.975 28.3424C137.873 28.3225 137.768 28.3126 137.66 28.3126C137.393 28.3126 137.207 28.3751 137.102 28.5001C136.997 28.6222 136.944 28.7941 136.944 29.0157V36.0001H135.133Z" fill="white"/>
<rect x="24" y="56.0001" width="73" height="40" rx="8" fill="#CAFC83"/>
<rect x="24" y="56.0001" width="73" height="40" rx="8" fill="white" fill-opacity="0.8"/>
<path d="M40.8253 81.0001V79.4489L44.4496 76.0931C44.7578 75.7948 45.0163 75.5263 45.2251 75.2877C45.4373 75.0491 45.598 74.8154 45.7074 74.5867C45.8168 74.3547 45.8714 74.1045 45.8714 73.836C45.8714 73.5377 45.8035 73.2808 45.6676 73.0654C45.5317 72.8467 45.3461 72.6793 45.1108 72.5633C44.8755 72.444 44.6087 72.3843 44.3104 72.3843C43.9988 72.3843 43.727 72.4473 43.495 72.5732C43.263 72.6992 43.084 72.8798 42.9581 73.1151C42.8321 73.3504 42.7692 73.6305 42.7692 73.9553H40.7259C40.7259 73.2891 40.8767 72.7108 41.1783 72.2202C41.4799 71.7297 41.9025 71.3502 42.446 71.0817C42.9896 70.8133 43.616 70.679 44.3253 70.679C45.0545 70.679 45.6892 70.8083 46.2294 71.0668C46.773 71.322 47.1955 71.6767 47.4972 72.1307C47.7988 72.5848 47.9496 73.1052 47.9496 73.6918C47.9496 74.0763 47.8733 74.4558 47.7209 74.8303C47.5717 75.2048 47.3049 75.6208 46.9205 76.0782C46.536 76.5323 45.9941 77.0775 45.2947 77.7138L43.8082 79.1705V79.2401H48.0838V81.0001H40.8253Z" fill="#00CC43"/>
<path d="M69 80.0001L63 74.0001H75L69 80.0001Z" fill="#00CC43"/>
<path d="M116.176 81.1592C115.487 81.1592 114.882 80.9951 114.362 80.667C113.844 80.3388 113.44 79.8798 113.148 79.2898C112.86 78.6999 112.716 78.0105 112.716 77.2217C112.716 76.4262 112.86 75.7318 113.148 75.1386C113.44 74.5453 113.844 74.0846 114.362 73.7565C114.882 73.4283 115.487 73.2643 116.176 73.2643C116.866 73.2643 117.469 73.4283 117.986 73.7565C118.506 74.0846 118.911 74.5453 119.199 75.1386C119.491 75.7318 119.636 76.4262 119.636 77.2217C119.636 78.0105 119.491 78.6999 119.199 79.2898C118.911 79.8798 118.506 80.3388 117.986 80.667C117.469 80.9951 116.866 81.1592 116.176 81.1592ZM116.176 80.1052C116.7 80.1052 117.131 79.9709 117.469 79.7025C117.807 79.434 118.057 79.081 118.219 78.6435C118.382 78.206 118.463 77.7321 118.463 77.2217C118.463 76.7112 118.382 76.2356 118.219 75.7948C118.057 75.354 117.807 74.9977 117.469 74.7259C117.131 74.4541 116.7 74.3182 116.176 74.3182C115.652 74.3182 115.222 74.4541 114.884 74.7259C114.545 74.9977 114.295 75.354 114.133 75.7948C113.97 76.2356 113.889 76.7112 113.889 77.2217C113.889 77.7321 113.97 78.206 114.133 78.6435C114.295 79.081 114.545 79.434 114.884 79.7025C115.222 79.9709 115.652 80.1052 116.176 80.1052ZM126.24 77.8779V73.3637H127.413V81.0001H126.24V79.7074H126.16C125.981 80.0952 125.703 80.425 125.325 80.6968C124.947 80.9653 124.47 81.0995 123.893 81.0995C123.416 81.0995 122.992 80.9951 122.621 80.7863C122.249 80.5742 121.958 80.256 121.746 79.8317C121.533 79.4042 121.427 78.8656 121.427 78.216V73.3637H122.601V78.1364C122.601 78.6932 122.756 79.1374 123.068 79.4688C123.383 79.8003 123.784 79.966 124.271 79.966C124.563 79.966 124.859 79.8914 125.161 79.7422C125.466 79.5931 125.721 79.3644 125.927 79.0562C126.135 78.7479 126.24 78.3552 126.24 77.8779ZM132.883 73.3637V74.358H128.926V73.3637H132.883ZM130.079 71.5342H131.252V78.8126C131.252 79.144 131.301 79.3926 131.397 79.5583C131.496 79.7207 131.622 79.8301 131.775 79.8864C131.93 79.9395 132.094 79.966 132.267 79.966C132.396 79.966 132.502 79.9593 132.585 79.9461C132.668 79.9295 132.734 79.9163 132.784 79.9063L133.022 80.9603C132.943 80.9901 132.832 81.0199 132.689 81.0498C132.547 81.0829 132.366 81.0995 132.147 81.0995C131.816 81.0995 131.491 81.0282 131.173 80.8857C130.858 80.7432 130.596 80.5261 130.387 80.2344C130.182 79.9428 130.079 79.5749 130.079 79.1307V71.5342ZM141.688 81.1592C140.998 81.1592 140.394 80.9951 139.873 80.667C139.356 80.3388 138.952 79.8798 138.66 79.2898C138.372 78.6999 138.228 78.0105 138.228 77.2217C138.228 76.4262 138.372 75.7318 138.66 75.1386C138.952 74.5453 139.356 74.0846 139.873 73.7565C140.394 73.4283 140.998 73.2643 141.688 73.2643C142.377 73.2643 142.98 73.4283 143.498 73.7565C144.018 74.0846 144.422 74.5453 144.711 75.1386C145.002 75.7318 145.148 76.4262 145.148 77.2217C145.148 78.0105 145.002 78.6999 144.711 79.2898C144.422 79.8798 144.018 80.3388 143.498 80.667C142.98 80.9951 142.377 81.1592 141.688 81.1592ZM141.688 80.1052C142.212 80.1052 142.642 79.9709 142.98 79.7025C143.319 79.434 143.569 79.081 143.731 78.6435C143.894 78.206 143.975 77.7321 143.975 77.2217C143.975 76.7112 143.894 76.2356 143.731 75.7948C143.569 75.354 143.319 74.9977 142.98 74.7259C142.642 74.4541 142.212 74.3182 141.688 74.3182C141.164 74.3182 140.733 74.4541 140.395 74.7259C140.057 74.9977 139.807 75.354 139.645 75.7948C139.482 76.2356 139.401 76.7112 139.401 77.2217C139.401 77.7321 139.482 78.206 139.645 78.6435C139.807 79.081 140.057 79.434 140.395 79.7025C140.733 79.9709 141.164 80.1052 141.688 80.1052ZM150.34 73.3637V74.358H146.223V73.3637H150.34ZM147.456 81.0001V72.3097C147.456 71.8722 147.559 71.5076 147.764 71.216C147.97 70.9243 148.237 70.7056 148.565 70.5597C148.893 70.4139 149.239 70.341 149.604 70.341C149.892 70.341 150.128 70.3642 150.31 70.4106C150.492 70.457 150.628 70.5001 150.718 70.5398L150.379 71.554C150.32 71.5342 150.237 71.5093 150.131 71.4795C150.028 71.4496 149.892 71.4347 149.723 71.4347C149.335 71.4347 149.055 71.5325 148.883 71.728C148.714 71.9236 148.629 72.2103 148.629 72.5881V81.0001H147.456ZM159.083 81.1393C158.5 81.1393 157.975 81.0233 157.507 80.7913C157.04 80.5592 156.666 80.2411 156.384 79.8367C156.102 79.4324 155.948 78.9717 155.922 78.4546H157.115C157.161 78.9153 157.37 79.2965 157.741 79.5981C158.116 79.8964 158.563 80.0455 159.083 80.0455C159.501 80.0455 159.872 79.9477 160.197 79.7522C160.525 79.5566 160.782 79.2882 160.968 78.9468C161.157 78.6021 161.251 78.2127 161.251 77.7785C161.251 77.3343 161.153 76.9383 160.958 76.5903C160.766 76.2389 160.5 75.9622 160.162 75.76C159.824 75.5578 159.438 75.4551 159.004 75.4518C158.692 75.4485 158.373 75.4965 158.044 75.5959C157.716 75.6921 157.446 75.8163 157.234 75.9688L156.081 75.8296L156.697 70.8182H161.987V71.912H157.731L157.373 74.9148H157.433C157.642 74.7491 157.904 74.6116 158.218 74.5022C158.533 74.3928 158.861 74.3381 159.203 74.3381C159.826 74.3381 160.381 74.4873 160.868 74.7856C161.359 75.0806 161.743 75.4849 162.022 75.9986C162.303 76.5124 162.444 77.099 162.444 77.7586C162.444 78.4082 162.298 78.9882 162.007 79.4986C161.718 80.0057 161.321 80.4068 160.814 80.7018C160.306 80.9934 159.73 81.1393 159.083 81.1393ZM168.377 81.0001V73.3637H169.51V74.5171H169.59C169.729 74.1393 169.981 73.8327 170.345 73.5974C170.71 73.362 171.121 73.2444 171.578 73.2444C171.664 73.2444 171.772 73.246 171.901 73.2494C172.031 73.2527 172.128 73.2576 172.195 73.2643V74.4574C172.155 74.4475 172.064 74.4326 171.921 74.4127C171.782 74.3895 171.635 74.3779 171.479 74.3779C171.108 74.3779 170.776 74.4558 170.485 74.6116C170.196 74.764 169.968 74.9761 169.798 75.2479C169.633 75.5164 169.55 75.823 169.55 76.1677V81.0001H168.377ZM176.555 81.1592C175.819 81.1592 175.184 80.9967 174.651 80.6719C174.12 80.3438 173.711 79.8864 173.423 79.2998C173.138 78.7098 172.995 78.0237 172.995 77.2415C172.995 76.4593 173.138 75.7699 173.423 75.1734C173.711 74.5735 174.112 74.1061 174.626 73.7714C175.143 73.4333 175.746 73.2643 176.436 73.2643C176.833 73.2643 177.226 73.3306 177.614 73.4631C178.002 73.5957 178.355 73.8111 178.673 74.1094C178.991 74.4044 179.244 74.7955 179.433 75.2827C179.622 75.7699 179.717 76.3699 179.717 77.0824V77.5796H173.83V76.5654H178.524C178.524 76.1345 178.437 75.7501 178.265 75.412C178.096 75.0739 177.854 74.8071 177.539 74.6116C177.228 74.416 176.86 74.3182 176.436 74.3182C175.968 74.3182 175.564 74.4342 175.222 74.6663C174.884 74.8949 174.624 75.1932 174.442 75.5611C174.26 75.929 174.169 76.3235 174.169 76.7444V77.4205C174.169 77.9972 174.268 78.4861 174.467 78.8871C174.669 79.2849 174.949 79.5881 175.307 79.7969C175.665 80.0024 176.081 80.1052 176.555 80.1052C176.863 80.1052 177.142 80.0621 177.39 79.9759C177.642 79.8864 177.859 79.7538 178.041 79.5782C178.224 79.3992 178.365 79.1771 178.464 78.912L179.597 79.2302C179.478 79.6146 179.278 79.9527 178.996 80.2444C178.714 80.5327 178.366 80.7581 177.952 80.9205C177.538 81.0796 177.072 81.1592 176.555 81.1592ZM187.513 73.3637L184.69 81.0001H183.496L180.673 73.3637H181.945L184.053 79.4489H184.133L186.241 73.3637H187.513ZM189.062 81.0001V73.3637H190.235V81.0001H189.062ZM189.659 72.091C189.43 72.091 189.233 72.0131 189.067 71.8573C188.905 71.7015 188.824 71.5143 188.824 71.2955C188.824 71.0768 188.905 70.8895 189.067 70.7337C189.233 70.5779 189.43 70.5001 189.659 70.5001C189.887 70.5001 190.083 70.5779 190.245 70.7337C190.411 70.8895 190.494 71.0768 190.494 71.2955C190.494 71.5143 190.411 71.7015 190.245 71.8573C190.083 72.0131 189.887 72.091 189.659 72.091ZM195.586 81.1592C194.85 81.1592 194.216 80.9967 193.682 80.6719C193.152 80.3438 192.742 79.8864 192.454 79.2998C192.169 78.7098 192.026 78.0237 192.026 77.2415C192.026 76.4593 192.169 75.7699 192.454 75.1734C192.742 74.5735 193.143 74.1061 193.657 73.7714C194.174 73.4333 194.777 73.2643 195.467 73.2643C195.865 73.2643 196.257 73.3306 196.645 73.4631C197.033 73.5957 197.386 73.8111 197.704 74.1094C198.022 74.4044 198.276 74.7955 198.465 75.2827C198.654 75.7699 198.748 76.3699 198.748 77.0824V77.5796H192.862V76.5654H197.555C197.555 76.1345 197.469 75.7501 197.296 75.412C197.127 75.0739 196.885 74.8071 196.57 74.6116C196.259 74.416 195.891 74.3182 195.467 74.3182C194.999 74.3182 194.595 74.4342 194.254 74.6663C193.916 74.8949 193.655 75.1932 193.473 75.5611C193.291 75.929 193.2 76.3235 193.2 76.7444V77.4205C193.2 77.9972 193.299 78.4861 193.498 78.8871C193.7 79.2849 193.98 79.5881 194.338 79.7969C194.696 80.0024 195.112 80.1052 195.586 80.1052C195.894 80.1052 196.173 80.0621 196.421 79.9759C196.673 79.8864 196.89 79.7538 197.073 79.5782C197.255 79.3992 197.396 79.1771 197.495 78.912L198.629 79.2302C198.509 79.6146 198.309 79.9527 198.027 80.2444C197.745 80.5327 197.397 80.7581 196.983 80.9205C196.569 81.0796 196.103 81.1592 195.586 81.1592ZM202.263 81.0001L199.936 73.3637H201.169L202.82 79.2103H202.899L204.53 73.3637H205.783L207.394 79.1904H207.473L209.124 73.3637H210.357L208.03 81.0001H206.877L205.206 75.1336H205.087L203.416 81.0001H202.263ZM217.317 75.0739L216.263 75.3722C216.197 75.1966 216.099 75.0259 215.97 74.8601C215.844 74.6911 215.671 74.5519 215.453 74.4425C215.234 74.3332 214.954 74.2785 214.612 74.2785C214.145 74.2785 213.756 74.3862 213.444 74.6016C213.136 74.8137 212.982 75.0839 212.982 75.412C212.982 75.7037 213.088 75.934 213.3 76.103C213.512 76.2721 213.843 76.4129 214.294 76.5256L215.428 76.804C216.11 76.9698 216.619 77.2233 216.954 77.5647C217.289 77.9028 217.456 78.3386 217.456 78.8722C217.456 79.3097 217.33 79.7008 217.078 80.0455C216.83 80.3902 216.482 80.662 216.034 80.8609C215.587 81.0597 215.066 81.1592 214.473 81.1592C213.694 81.1592 213.05 80.9901 212.539 80.652C212.029 80.314 211.706 79.8201 211.57 79.1705L212.683 78.8921C212.789 79.3031 212.99 79.6113 213.285 79.8168C213.583 80.0223 213.973 80.1251 214.453 80.1251C215 80.1251 215.434 80.0091 215.756 79.777C216.081 79.5417 216.243 79.26 216.243 78.9319C216.243 78.6667 216.15 78.4447 215.965 78.2657C215.779 78.0834 215.494 77.9475 215.11 77.858L213.837 77.5597C213.137 77.394 212.624 77.1371 212.296 76.7891C211.971 76.4378 211.808 75.9986 211.808 75.4717C211.808 75.0408 211.929 74.6596 212.171 74.3282C212.417 73.9967 212.75 73.7366 213.171 73.5476C213.595 73.3587 214.075 73.2643 214.612 73.2643C215.368 73.2643 215.961 73.43 216.392 73.7614C216.826 74.0929 217.135 74.5304 217.317 75.0739Z" fill="white"/>
<path d="M27.3864 124.955V130H24.9659V118.364H27.3182V122.813H27.4205C27.6174 122.297 27.9356 121.894 28.375 121.602C28.8144 121.307 29.3655 121.159 30.0284 121.159C30.6345 121.159 31.1629 121.292 31.6136 121.557C32.0682 121.818 32.4205 122.195 32.6705 122.688C32.9242 123.176 33.0492 123.761 33.0455 124.443V130H30.625V124.875C30.6288 124.337 30.4924 123.919 30.2159 123.619C29.9432 123.32 29.5606 123.171 29.0682 123.171C28.7386 123.171 28.447 123.241 28.1932 123.381C27.9432 123.521 27.7462 123.725 27.6023 123.994C27.4621 124.26 27.3902 124.58 27.3864 124.955ZM37.4389 130.165C36.8821 130.165 36.3859 130.068 35.9503 129.875C35.5147 129.678 35.17 129.388 34.9162 129.006C34.6662 128.619 34.5412 128.138 34.5412 127.563C34.5412 127.078 34.6302 126.671 34.8082 126.341C34.9863 126.011 35.2287 125.746 35.5355 125.546C35.8423 125.345 36.1908 125.193 36.581 125.091C36.9749 124.989 37.3878 124.917 37.8196 124.875C38.3272 124.822 38.7363 124.773 39.0469 124.727C39.3575 124.678 39.5829 124.606 39.723 124.511C39.8632 124.417 39.9332 124.277 39.9332 124.091V124.057C39.9332 123.697 39.8196 123.419 39.5923 123.222C39.3688 123.025 39.0507 122.926 38.6378 122.926C38.2022 122.926 37.8556 123.023 37.598 123.216C37.3404 123.405 37.17 123.644 37.0866 123.932L34.848 123.75C34.9616 123.22 35.1851 122.761 35.5185 122.375C35.8518 121.985 36.2817 121.686 36.8082 121.477C37.3385 121.265 37.9522 121.159 38.6491 121.159C39.134 121.159 39.598 121.216 40.0412 121.33C40.4882 121.443 40.884 121.619 41.2287 121.858C41.5772 122.097 41.8518 122.403 42.0526 122.778C42.2533 123.15 42.3537 123.595 42.3537 124.114V130H40.0582V128.79H39.9901C39.8499 129.063 39.6624 129.303 39.4276 129.511C39.1927 129.716 38.9105 129.877 38.581 129.994C38.2514 130.108 37.8707 130.165 37.4389 130.165ZM38.1321 128.494C38.4882 128.494 38.8026 128.424 39.0753 128.284C39.348 128.14 39.562 127.947 39.7173 127.705C39.8726 127.462 39.9503 127.188 39.9503 126.881V125.955C39.8745 126.004 39.7704 126.049 39.6378 126.091C39.509 126.129 39.3632 126.165 39.2003 126.199C39.0374 126.229 38.8745 126.258 38.7116 126.284C38.5488 126.307 38.401 126.328 38.2685 126.347C37.9844 126.388 37.7363 126.455 37.5241 126.546C37.312 126.636 37.1473 126.76 37.0298 126.915C36.9124 127.066 36.8537 127.256 36.8537 127.483C36.8537 127.813 36.973 128.064 37.2116 128.239C37.4541 128.409 37.7609 128.494 38.1321 128.494ZM52.0554 121.273L49.0043 130H46.277L43.2259 121.273H45.7827L47.5952 127.517H47.6861L49.4929 121.273H52.0554ZM56.9901 130.171C56.0923 130.171 55.3196 129.989 54.6719 129.625C54.0279 129.258 53.5317 128.739 53.1832 128.068C52.8348 127.394 52.6605 126.597 52.6605 125.676C52.6605 124.778 52.8348 123.991 53.1832 123.313C53.5317 122.635 54.0223 122.106 54.6548 121.727C55.2912 121.349 56.0374 121.159 56.8935 121.159C57.4692 121.159 58.0052 121.252 58.5014 121.438C59.0014 121.619 59.437 121.894 59.8082 122.261C60.1832 122.629 60.4749 123.091 60.6832 123.648C60.8916 124.201 60.9957 124.849 60.9957 125.591V126.256H53.6264V124.756H58.7173C58.7173 124.407 58.6416 124.099 58.4901 123.83C58.3385 123.561 58.1283 123.35 57.8594 123.199C57.5942 123.044 57.2855 122.966 56.9332 122.966C56.5658 122.966 56.2401 123.051 55.956 123.222C55.6757 123.388 55.456 123.614 55.2969 123.898C55.1378 124.178 55.0563 124.491 55.0526 124.835V126.261C55.0526 126.693 55.1321 127.066 55.2912 127.381C55.4541 127.695 55.6832 127.938 55.9787 128.108C56.2741 128.278 56.6245 128.364 57.0298 128.364C57.2988 128.364 57.545 128.326 57.7685 128.25C57.992 128.174 58.1832 128.061 58.3423 127.909C58.5014 127.758 58.6226 127.572 58.706 127.352L60.9446 127.5C60.831 128.038 60.598 128.508 60.2457 128.909C59.8973 129.307 59.4465 129.617 58.8935 129.841C58.3442 130.061 57.7098 130.171 56.9901 130.171ZM68.6989 124.955V130H66.2784V121.273H68.5852V122.813H68.6875C68.8807 122.305 69.2045 121.903 69.6591 121.608C70.1136 121.309 70.6648 121.159 71.3125 121.159C71.9186 121.159 72.447 121.292 72.8977 121.557C73.3485 121.822 73.6989 122.201 73.9489 122.693C74.1989 123.182 74.3239 123.765 74.3239 124.443V130H71.9034V124.875C71.9072 124.341 71.7708 123.924 71.4943 123.625C71.2178 123.322 70.8371 123.171 70.3523 123.171C70.0265 123.171 69.7386 123.241 69.4886 123.381C69.2424 123.521 69.0492 123.725 68.9091 123.994C68.7727 124.26 68.7027 124.58 68.6989 124.955ZM80.1747 130.171C79.2921 130.171 78.5289 129.983 77.8849 129.608C77.2448 129.229 76.7505 128.703 76.402 128.028C76.0535 127.35 75.8793 126.564 75.8793 125.671C75.8793 124.769 76.0535 123.981 76.402 123.307C76.7505 122.629 77.2448 122.102 77.8849 121.727C78.5289 121.349 79.2921 121.159 80.1747 121.159C81.0573 121.159 81.8187 121.349 82.4588 121.727C83.1027 122.102 83.599 122.629 83.9474 123.307C84.2959 123.981 84.4702 124.769 84.4702 125.671C84.4702 126.564 84.2959 127.35 83.9474 128.028C83.599 128.703 83.1027 129.229 82.4588 129.608C81.8187 129.983 81.0573 130.171 80.1747 130.171ZM80.1861 128.296C80.5876 128.296 80.9228 128.182 81.1918 127.955C81.4607 127.724 81.6634 127.409 81.7997 127.011C81.9399 126.614 82.0099 126.161 82.0099 125.653C82.0099 125.146 81.9399 124.693 81.7997 124.296C81.6634 123.898 81.4607 123.583 81.1918 123.352C80.9228 123.121 80.5876 123.006 80.1861 123.006C79.7808 123.006 79.4399 123.121 79.1634 123.352C78.8906 123.583 78.6842 123.898 78.544 124.296C78.4077 124.693 78.3395 125.146 78.3395 125.653C78.3395 126.161 78.4077 126.614 78.544 127.011C78.6842 127.409 78.8906 127.724 79.1634 127.955C79.4399 128.182 79.7808 128.296 80.1861 128.296ZM90.6861 121.273V123.091H85.4304V121.273H90.6861ZM86.6236 119.182H89.044V127.318C89.044 127.542 89.0781 127.716 89.1463 127.841C89.2145 127.962 89.3092 128.047 89.4304 128.097C89.5554 128.146 89.6993 128.171 89.8622 128.171C89.9759 128.171 90.0895 128.161 90.2031 128.142C90.3168 128.119 90.4039 128.102 90.4645 128.091L90.8452 129.892C90.724 129.93 90.5535 129.974 90.3338 130.023C90.1141 130.076 89.8471 130.108 89.5327 130.119C88.9493 130.142 88.438 130.064 87.9986 129.886C87.563 129.708 87.224 129.432 86.9815 129.057C86.7391 128.682 86.6198 128.208 86.6236 127.636V119.182ZM98.4545 130.165C97.8977 130.165 97.4015 130.068 96.9659 129.875C96.5303 129.678 96.1856 129.388 95.9318 129.006C95.6818 128.619 95.5568 128.138 95.5568 127.563C95.5568 127.078 95.6458 126.671 95.8239 126.341C96.0019 126.011 96.2443 125.746 96.5511 125.546C96.858 125.345 97.2064 125.193 97.5966 125.091C97.9905 124.989 98.4034 124.917 98.8352 124.875C99.3428 124.822 99.7519 124.773 100.062 124.727C100.373 124.678 100.598 124.606 100.739 124.511C100.879 124.417 100.949 124.277 100.949 124.091V124.057C100.949 123.697 100.835 123.419 100.608 123.222C100.384 123.025 100.066 122.926 99.6534 122.926C99.2178 122.926 98.8712 123.023 98.6136 123.216C98.3561 123.405 98.1856 123.644 98.1023 123.932L95.8636 123.75C95.9773 123.22 96.2008 122.761 96.5341 122.375C96.8674 121.985 97.2973 121.686 97.8239 121.477C98.3542 121.265 98.9678 121.159 99.6648 121.159C100.15 121.159 100.614 121.216 101.057 121.33C101.504 121.443 101.9 121.619 102.244 121.858C102.593 122.097 102.867 122.403 103.068 122.778C103.269 123.15 103.369 123.595 103.369 124.114V130H101.074V128.79H101.006C100.866 129.063 100.678 129.303 100.443 129.511C100.208 129.716 99.9261 129.877 99.5966 129.994C99.267 130.108 98.8864 130.165 98.4545 130.165ZM99.1477 128.494C99.5038 128.494 99.8182 128.424 100.091 128.284C100.364 128.14 100.578 127.947 100.733 127.705C100.888 127.462 100.966 127.188 100.966 126.881V125.955C100.89 126.004 100.786 126.049 100.653 126.091C100.525 126.129 100.379 126.165 100.216 126.199C100.053 126.229 99.8902 126.258 99.7273 126.284C99.5644 126.307 99.4167 126.328 99.2841 126.347C99 126.388 98.7519 126.455 98.5398 126.546C98.3277 126.636 98.1629 126.76 98.0455 126.915C97.928 127.066 97.8693 127.256 97.8693 127.483C97.8693 127.813 97.9886 128.064 98.2273 128.239C98.4697 128.409 98.7765 128.494 99.1477 128.494ZM105.247 133.273V121.273H107.634V122.739H107.741C107.848 122.504 108.001 122.265 108.202 122.023C108.406 121.777 108.671 121.572 108.997 121.409C109.327 121.242 109.736 121.159 110.224 121.159C110.861 121.159 111.448 121.326 111.986 121.659C112.524 121.989 112.954 122.487 113.276 123.153C113.598 123.816 113.759 124.648 113.759 125.648C113.759 126.621 113.601 127.443 113.287 128.114C112.976 128.78 112.552 129.286 112.014 129.631C111.48 129.972 110.882 130.142 110.219 130.142C109.749 130.142 109.349 130.064 109.02 129.909C108.694 129.754 108.427 129.559 108.219 129.324C108.01 129.085 107.851 128.845 107.741 128.602H107.668V133.273H105.247ZM107.616 125.636C107.616 126.155 107.688 126.608 107.832 126.994C107.976 127.381 108.185 127.682 108.457 127.898C108.73 128.11 109.062 128.216 109.452 128.216C109.846 128.216 110.179 128.108 110.452 127.892C110.724 127.672 110.931 127.369 111.071 126.983C111.215 126.593 111.287 126.144 111.287 125.636C111.287 125.133 111.217 124.689 111.077 124.307C110.937 123.924 110.73 123.625 110.457 123.409C110.185 123.193 109.849 123.085 109.452 123.085C109.058 123.085 108.724 123.189 108.452 123.398C108.183 123.606 107.976 123.902 107.832 124.284C107.688 124.667 107.616 125.117 107.616 125.636ZM115.372 133.273V121.273H117.759V122.739H117.866C117.973 122.504 118.126 122.265 118.327 122.023C118.531 121.777 118.796 121.572 119.122 121.409C119.452 121.242 119.861 121.159 120.349 121.159C120.986 121.159 121.573 121.326 122.111 121.659C122.649 121.989 123.079 122.487 123.401 123.153C123.723 123.816 123.884 124.648 123.884 125.648C123.884 126.621 123.726 127.443 123.412 128.114C123.101 128.78 122.677 129.286 122.139 129.631C121.605 129.972 121.007 130.142 120.344 130.142C119.874 130.142 119.474 130.064 119.145 129.909C118.819 129.754 118.552 129.559 118.344 129.324C118.135 129.085 117.976 128.845 117.866 128.602H117.793V133.273H115.372ZM117.741 125.636C117.741 126.155 117.813 126.608 117.957 126.994C118.101 127.381 118.31 127.682 118.582 127.898C118.855 128.11 119.187 128.216 119.577 128.216C119.971 128.216 120.304 128.108 120.577 127.892C120.849 127.672 121.056 127.369 121.196 126.983C121.34 126.593 121.412 126.144 121.412 125.636C121.412 125.133 121.342 124.689 121.202 124.307C121.062 123.924 120.855 123.625 120.582 123.409C120.31 123.193 119.974 123.085 119.577 123.085C119.183 123.085 118.849 123.189 118.577 123.398C118.308 123.606 118.101 123.902 117.957 124.284C117.813 124.667 117.741 125.117 117.741 125.636ZM125.497 130V121.273H127.844V122.796H127.935C128.094 122.254 128.361 121.845 128.736 121.568C129.111 121.288 129.543 121.148 130.031 121.148C130.152 121.148 130.283 121.155 130.423 121.171C130.563 121.186 130.687 121.207 130.793 121.233V123.381C130.679 123.347 130.522 123.316 130.321 123.29C130.12 123.263 129.937 123.25 129.77 123.25C129.414 123.25 129.096 123.328 128.815 123.483C128.539 123.635 128.319 123.847 128.156 124.119C127.997 124.392 127.918 124.707 127.918 125.063V130H125.497ZM135.581 130.171C134.698 130.171 133.935 129.983 133.291 129.608C132.651 129.229 132.157 128.703 131.808 128.028C131.46 127.35 131.286 126.564 131.286 125.671C131.286 124.769 131.46 123.981 131.808 123.307C132.157 122.629 132.651 122.102 133.291 121.727C133.935 121.349 134.698 121.159 135.581 121.159C136.464 121.159 137.225 121.349 137.865 121.727C138.509 122.102 139.005 122.629 139.354 123.307C139.702 123.981 139.876 124.769 139.876 125.671C139.876 126.564 139.702 127.35 139.354 128.028C139.005 128.703 138.509 129.229 137.865 129.608C137.225 129.983 136.464 130.171 135.581 130.171ZM135.592 128.296C135.994 128.296 136.329 128.182 136.598 127.955C136.867 127.724 137.07 127.409 137.206 127.011C137.346 126.614 137.416 126.161 137.416 125.653C137.416 125.146 137.346 124.693 137.206 124.296C137.07 123.898 136.867 123.583 136.598 123.352C136.329 123.121 135.994 123.006 135.592 123.006C135.187 123.006 134.846 123.121 134.57 123.352C134.297 123.583 134.09 123.898 133.95 124.296C133.814 124.693 133.746 125.146 133.746 125.653C133.746 126.161 133.814 126.614 133.95 127.011C134.09 127.409 134.297 127.724 134.57 127.955C134.846 128.182 135.187 128.296 135.592 128.296ZM149.305 121.273L146.254 130H143.527L140.476 121.273H143.033L144.845 127.517H144.936L146.743 121.273H149.305ZM154.24 130.171C153.342 130.171 152.57 129.989 151.922 129.625C151.278 129.258 150.782 128.739 150.433 128.068C150.085 127.394 149.911 126.597 149.911 125.676C149.911 124.778 150.085 123.991 150.433 123.313C150.782 122.635 151.272 122.106 151.905 121.727C152.541 121.349 153.287 121.159 154.143 121.159C154.719 121.159 155.255 121.252 155.751 121.438C156.251 121.619 156.687 121.894 157.058 122.261C157.433 122.629 157.725 123.091 157.933 123.648C158.142 124.201 158.246 124.849 158.246 125.591V126.256H150.876V124.756H155.967C155.967 124.407 155.892 124.099 155.74 123.83C155.589 123.561 155.378 123.35 155.109 123.199C154.844 123.044 154.536 122.966 154.183 122.966C153.816 122.966 153.49 123.051 153.206 123.222C152.926 123.388 152.706 123.614 152.547 123.898C152.388 124.178 152.306 124.491 152.303 124.835V126.261C152.303 126.693 152.382 127.066 152.541 127.381C152.704 127.695 152.933 127.938 153.229 128.108C153.524 128.278 153.875 128.364 154.28 128.364C154.549 128.364 154.795 128.326 155.018 128.25C155.242 128.174 155.433 128.061 155.592 127.909C155.751 127.758 155.873 127.572 155.956 127.352L158.195 127.5C158.081 128.038 157.848 128.508 157.496 128.909C157.147 129.307 156.696 129.617 156.143 129.841C155.594 130.061 154.96 130.171 154.24 130.171ZM163.041 130.142C162.378 130.142 161.778 129.972 161.24 129.631C160.706 129.286 160.282 128.78 159.967 128.114C159.657 127.443 159.501 126.621 159.501 125.648C159.501 124.648 159.662 123.816 159.984 123.153C160.306 122.487 160.734 121.989 161.268 121.659C161.806 121.326 162.395 121.159 163.036 121.159C163.524 121.159 163.931 121.242 164.257 121.409C164.587 121.572 164.852 121.777 165.053 122.023C165.257 122.265 165.412 122.504 165.518 122.739H165.592V118.364H168.007V130H165.621V128.602H165.518C165.405 128.845 165.244 129.085 165.036 129.324C164.831 129.559 164.564 129.754 164.234 129.909C163.909 130.064 163.511 130.142 163.041 130.142ZM163.808 128.216C164.198 128.216 164.528 128.11 164.797 127.898C165.07 127.682 165.278 127.381 165.422 126.994C165.57 126.608 165.643 126.155 165.643 125.636C165.643 125.117 165.571 124.667 165.428 124.284C165.284 123.902 165.075 123.606 164.803 123.398C164.53 123.189 164.198 123.085 163.808 123.085C163.411 123.085 163.075 123.193 162.803 123.409C162.53 123.625 162.323 123.924 162.183 124.307C162.043 124.689 161.973 125.133 161.973 125.636C161.973 126.144 162.043 126.593 162.183 126.983C162.327 127.369 162.534 127.672 162.803 127.892C163.075 128.108 163.411 128.216 163.808 128.216Z" fill="white"/>
<rect x="24" y="152" width="120" height="40" rx="20" fill="#1D1919"/>
<path d="M65.8686 170.383H63.6911C63.6513 170.101 63.5701 169.851 63.4474 169.632C63.3248 169.41 63.1674 169.221 62.9751 169.065C62.7829 168.91 62.5608 168.79 62.3089 168.707C62.0604 168.625 61.7902 168.583 61.4986 168.583C60.9716 168.583 60.5125 168.714 60.1214 168.976C59.7304 169.234 59.4271 169.612 59.2116 170.109C58.9962 170.603 58.8885 171.203 58.8885 171.909C58.8885 172.635 58.9962 173.245 59.2116 173.739C59.4304 174.233 59.7353 174.605 60.1264 174.857C60.5175 175.109 60.9699 175.235 61.4837 175.235C61.772 175.235 62.0388 175.197 62.2841 175.121C62.5327 175.045 62.7531 174.934 62.9453 174.788C63.1375 174.639 63.2966 174.458 63.4226 174.246C63.5518 174.034 63.6413 173.792 63.6911 173.52L65.8686 173.53C65.8123 173.997 65.6714 174.448 65.446 174.882C65.224 175.313 64.924 175.699 64.5462 176.041C64.1716 176.379 63.7242 176.647 63.2038 176.846C62.6868 177.041 62.1018 177.139 61.4489 177.139C60.5407 177.139 59.7287 176.934 59.0128 176.523C58.3002 176.112 57.7367 175.517 57.3224 174.738C56.9115 173.959 56.706 173.016 56.706 171.909C56.706 170.799 56.9148 169.854 57.3324 169.075C57.75 168.296 58.3168 167.703 59.0327 167.296C59.7486 166.885 60.554 166.679 61.4489 166.679C62.0388 166.679 62.5857 166.762 63.0895 166.928C63.5966 167.093 64.0457 167.335 64.4368 167.653C64.8279 167.968 65.1461 168.354 65.3913 168.812C65.6399 169.269 65.799 169.793 65.8686 170.383ZM70.8228 177.149C70.0505 177.149 69.3827 176.985 68.8192 176.657C68.2591 176.326 67.8266 175.865 67.5217 175.275C67.2167 174.682 67.0643 173.994 67.0643 173.212C67.0643 172.423 67.2167 171.733 67.5217 171.144C67.8266 170.55 68.2591 170.09 68.8192 169.761C69.3827 169.43 70.0505 169.264 70.8228 169.264C71.5951 169.264 72.2612 169.43 72.8214 169.761C73.3848 170.09 73.819 170.55 74.1239 171.144C74.4289 171.733 74.5813 172.423 74.5813 173.212C74.5813 173.994 74.4289 174.682 74.1239 175.275C73.819 175.865 73.3848 176.326 72.8214 176.657C72.2612 176.985 71.5951 177.149 70.8228 177.149ZM70.8327 175.509C71.1841 175.509 71.4774 175.409 71.7127 175.21C71.948 175.008 72.1254 174.733 72.2447 174.385C72.3673 174.037 72.4286 173.641 72.4286 173.197C72.4286 172.753 72.3673 172.357 72.2447 172.009C72.1254 171.661 71.948 171.385 71.7127 171.183C71.4774 170.981 71.1841 170.88 70.8327 170.88C70.4781 170.88 70.1798 170.981 69.9379 171.183C69.6992 171.385 69.5186 171.661 69.396 172.009C69.2766 172.357 69.217 172.753 69.217 173.197C69.217 173.641 69.2766 174.037 69.396 174.385C69.5186 174.733 69.6992 175.008 69.9379 175.21C70.1798 175.409 70.4781 175.509 70.8327 175.509ZM78.0763 172.585V177H75.9585V169.364H77.9769V170.711H78.0664C78.2354 170.267 78.5188 169.916 78.9165 169.657C79.3143 169.395 79.7965 169.264 80.3633 169.264C80.8936 169.264 81.3559 169.38 81.7504 169.612C82.1448 169.844 82.4513 170.176 82.6701 170.607C82.8888 171.034 82.9982 171.545 82.9982 172.138V177H80.8803V172.516C80.8836 172.048 80.7643 171.684 80.5224 171.422C80.2804 171.157 79.9473 171.024 79.5231 171.024C79.238 171.024 78.9862 171.086 78.7674 171.208C78.552 171.331 78.3829 171.51 78.2603 171.745C78.141 171.977 78.0797 172.257 78.0763 172.585ZM88.774 169.364V170.955H84.0609V169.364H88.774ZM85.1397 177V168.812C85.1397 168.258 85.2475 167.799 85.4629 167.435C85.6816 167.07 85.9799 166.797 86.3578 166.614C86.7356 166.432 87.1648 166.341 87.6454 166.341C87.9702 166.341 88.2669 166.366 88.5353 166.416C88.8071 166.465 89.0093 166.51 89.1419 166.55L88.764 168.141C88.6812 168.114 88.5784 168.089 88.4558 168.066C88.3365 168.043 88.2138 168.031 88.0879 168.031C87.7763 168.031 87.5592 168.104 87.4366 168.25C87.314 168.393 87.2527 168.593 87.2527 168.852V177H85.1397ZM90.0678 177V169.364H92.1857V177H90.0678ZM91.1317 168.379C90.8169 168.379 90.5468 168.275 90.3214 168.066C90.0993 167.854 89.9883 167.6 89.9883 167.305C89.9883 167.014 90.0993 166.764 90.3214 166.555C90.5468 166.343 90.8169 166.237 91.1317 166.237C91.4466 166.237 91.7151 166.343 91.9371 166.555C92.1625 166.764 92.2752 167.014 92.2752 167.305C92.2752 167.6 92.1625 167.854 91.9371 168.066C91.7151 168.275 91.4466 168.379 91.1317 168.379ZM93.8823 177V169.364H95.9355V170.696H96.0151C96.1543 170.222 96.388 169.864 96.7161 169.622C97.0442 169.377 97.4221 169.254 97.8496 169.254C97.9557 169.254 98.07 169.261 98.1926 169.274C98.3153 169.287 98.423 169.306 98.5158 169.329V171.208C98.4164 171.178 98.2788 171.152 98.1032 171.129C97.9275 171.105 97.7667 171.094 97.6209 171.094C97.3094 171.094 97.031 171.162 96.7857 171.298C96.5437 171.43 96.3515 171.616 96.209 171.854C96.0698 172.093 96.0002 172.368 96.0002 172.68V177H93.8823ZM99.6108 177V169.364H101.629V170.711H101.719C101.878 170.264 102.143 169.911 102.514 169.652C102.885 169.394 103.33 169.264 103.847 169.264C104.37 169.264 104.816 169.395 105.184 169.657C105.552 169.916 105.797 170.267 105.92 170.711H105.999C106.155 170.273 106.437 169.924 106.844 169.662C107.255 169.397 107.741 169.264 108.301 169.264C109.014 169.264 109.592 169.491 110.036 169.945C110.484 170.396 110.707 171.036 110.707 171.864V177H108.594V172.282C108.594 171.858 108.482 171.54 108.256 171.327C108.031 171.115 107.749 171.009 107.411 171.009C107.027 171.009 106.727 171.132 106.511 171.377C106.296 171.619 106.188 171.939 106.188 172.337V177H104.135V172.237C104.135 171.863 104.027 171.564 103.812 171.342C103.6 171.12 103.32 171.009 102.972 171.009C102.736 171.009 102.524 171.069 102.335 171.188C102.15 171.304 102.002 171.468 101.893 171.68C101.783 171.889 101.729 172.135 101.729 172.416V177H99.6108Z" fill="white"/>
<rect x="254" y="224" width="256" height="212" rx="12" fill="#00CC43"/>
<path d="M280.263 260H278.286L281.298 251.273H283.676L286.685 260H284.707L282.521 253.267H282.453L280.263 260ZM280.139 256.57H284.81V258.01H280.139V256.57ZM287.735 260V251.273H289.55V254.554H289.606C289.685 254.378 289.8 254.199 289.951 254.017C290.104 253.832 290.303 253.679 290.548 253.557C290.795 253.432 291.102 253.369 291.468 253.369C291.945 253.369 292.386 253.494 292.789 253.744C293.192 253.992 293.515 254.365 293.756 254.865C293.998 255.362 294.119 255.986 294.119 256.736C294.119 257.466 294.001 258.082 293.765 258.585C293.532 259.085 293.214 259.465 292.81 259.723C292.41 259.979 291.961 260.107 291.464 260.107C291.112 260.107 290.812 260.048 290.565 259.932C290.32 259.815 290.12 259.669 289.964 259.493C289.808 259.314 289.688 259.134 289.606 258.952H289.525V260H287.735ZM289.512 256.727C289.512 257.117 289.566 257.456 289.674 257.746C289.782 258.036 289.938 258.261 290.143 258.423C290.347 258.582 290.596 258.662 290.888 258.662C291.184 258.662 291.434 258.581 291.638 258.419C291.843 258.254 291.998 258.027 292.103 257.737C292.211 257.445 292.265 257.108 292.265 256.727C292.265 256.349 292.212 256.017 292.107 255.73C292.002 255.443 291.847 255.219 291.643 255.057C291.438 254.895 291.187 254.814 290.888 254.814C290.593 254.814 290.343 254.892 290.138 255.048C289.937 255.205 289.782 255.426 289.674 255.713C289.566 256 289.512 256.338 289.512 256.727ZM298.287 260.128C297.625 260.128 297.053 259.987 296.57 259.706C296.09 259.422 295.719 259.027 295.458 258.521C295.196 258.013 295.066 257.423 295.066 256.753C295.066 256.077 295.196 255.486 295.458 254.98C295.719 254.472 296.09 254.077 296.57 253.796C297.053 253.511 297.625 253.369 298.287 253.369C298.949 253.369 299.52 253.511 300 253.796C300.483 254.077 300.855 254.472 301.117 254.98C301.378 255.486 301.509 256.077 301.509 256.753C301.509 257.423 301.378 258.013 301.117 258.521C300.855 259.027 300.483 259.422 300 259.706C299.52 259.987 298.949 260.128 298.287 260.128ZM298.296 258.722C298.597 258.722 298.848 258.636 299.05 258.466C299.252 258.293 299.404 258.057 299.506 257.759C299.611 257.46 299.664 257.121 299.664 256.74C299.664 256.359 299.611 256.02 299.506 255.722C299.404 255.423 299.252 255.188 299.05 255.014C298.848 254.841 298.597 254.754 298.296 254.754C297.992 254.754 297.736 254.841 297.529 255.014C297.324 255.188 297.169 255.423 297.064 255.722C296.962 256.02 296.911 256.359 296.911 256.74C296.911 257.121 296.962 257.46 297.064 257.759C297.169 258.057 297.324 258.293 297.529 258.466C297.736 258.636 297.992 258.722 298.296 258.722ZM302.689 260V253.455H304.449V254.597H304.517C304.637 254.19 304.837 253.884 305.118 253.676C305.4 253.466 305.723 253.361 306.09 253.361C306.181 253.361 306.279 253.367 306.384 253.378C306.489 253.389 306.581 253.405 306.661 253.425V255.036C306.576 255.01 306.458 254.987 306.307 254.967C306.157 254.948 306.019 254.938 305.894 254.938C305.627 254.938 305.388 254.996 305.178 255.112C304.971 255.226 304.806 255.385 304.684 255.59C304.564 255.794 304.505 256.03 304.505 256.297V260H302.689ZM311.409 253.455V254.818H307.467V253.455H311.409ZM308.362 251.886H310.178V257.989C310.178 258.156 310.203 258.287 310.254 258.381C310.305 258.472 310.376 258.536 310.467 258.573C310.561 258.609 310.669 258.628 310.791 258.628C310.876 258.628 310.962 258.621 311.047 258.607C311.132 258.59 311.197 258.577 311.243 258.568L311.528 259.919C311.438 259.948 311.31 259.98 311.145 260.017C310.98 260.057 310.78 260.081 310.544 260.09C310.107 260.107 309.723 260.048 309.393 259.915C309.067 259.781 308.813 259.574 308.631 259.293C308.449 259.011 308.359 258.656 308.362 258.227V251.886ZM318.85 253.455V254.818H314.909V253.455H318.85ZM315.804 251.886H317.619V257.989C317.619 258.156 317.645 258.287 317.696 258.381C317.747 258.472 317.818 258.536 317.909 258.573C318.002 258.609 318.11 258.628 318.233 258.628C318.318 258.628 318.403 258.621 318.488 258.607C318.574 258.59 318.639 258.577 318.684 258.568L318.97 259.919C318.879 259.948 318.751 259.98 318.586 260.017C318.422 260.057 318.221 260.081 317.985 260.09C317.548 260.107 317.164 260.048 316.835 259.915C316.508 259.781 316.254 259.574 316.072 259.293C315.89 259.011 315.801 258.656 315.804 258.227V251.886ZM320.033 260V253.455H321.793V254.597H321.861C321.98 254.19 322.181 253.884 322.462 253.676C322.743 253.466 323.067 253.361 323.434 253.361C323.525 253.361 323.623 253.367 323.728 253.378C323.833 253.389 323.925 253.405 324.005 253.425V255.036C323.919 255.01 323.801 254.987 323.651 254.967C323.5 254.948 323.363 254.938 323.238 254.938C322.971 254.938 322.732 254.996 322.522 255.112C322.314 255.226 322.15 255.385 322.027 255.59C321.908 255.794 321.848 256.03 321.848 256.297V260H320.033ZM326.622 260.124C326.205 260.124 325.832 260.051 325.506 259.906C325.179 259.759 324.92 259.541 324.73 259.254C324.543 258.965 324.449 258.604 324.449 258.172C324.449 257.808 324.516 257.503 324.649 257.256C324.783 257.009 324.964 256.81 325.195 256.659C325.425 256.509 325.686 256.395 325.979 256.318C326.274 256.242 326.584 256.188 326.908 256.156C327.288 256.117 327.595 256.08 327.828 256.046C328.061 256.009 328.23 255.955 328.335 255.884C328.44 255.813 328.493 255.707 328.493 255.568V255.543C328.493 255.273 328.408 255.064 328.237 254.916C328.07 254.769 327.831 254.695 327.521 254.695C327.195 254.695 326.935 254.767 326.741 254.912C326.548 255.054 326.42 255.233 326.358 255.449L324.679 255.313C324.764 254.915 324.932 254.571 325.182 254.281C325.432 253.989 325.754 253.764 326.149 253.608C326.547 253.449 327.007 253.369 327.53 253.369C327.893 253.369 328.241 253.412 328.574 253.497C328.909 253.582 329.206 253.715 329.464 253.894C329.726 254.073 329.932 254.303 330.082 254.584C330.233 254.862 330.308 255.196 330.308 255.585V260H328.587V259.092H328.536C328.43 259.297 328.29 259.477 328.114 259.634C327.938 259.787 327.726 259.908 327.479 259.996C327.232 260.081 326.946 260.124 326.622 260.124ZM327.142 258.871C327.409 258.871 327.645 258.818 327.849 258.713C328.054 258.605 328.214 258.46 328.331 258.278C328.447 258.097 328.506 257.891 328.506 257.661V256.966C328.449 257.003 328.371 257.037 328.271 257.068C328.175 257.097 328.065 257.124 327.943 257.149C327.821 257.172 327.699 257.193 327.577 257.213C327.455 257.23 327.344 257.246 327.244 257.26C327.031 257.291 326.845 257.341 326.686 257.409C326.527 257.477 326.403 257.57 326.315 257.686C326.227 257.8 326.183 257.942 326.183 258.112C326.183 258.359 326.273 258.548 326.452 258.679C326.634 258.807 326.864 258.871 327.142 258.871ZM333.532 256.216V260H331.717V253.455H333.447V254.609H333.523C333.668 254.229 333.911 253.928 334.252 253.706C334.593 253.482 335.006 253.369 335.492 253.369C335.947 253.369 336.343 253.469 336.681 253.668C337.019 253.867 337.282 254.151 337.469 254.52C337.657 254.886 337.751 255.324 337.751 255.832V260H335.935V256.156C335.938 255.756 335.836 255.443 335.629 255.219C335.421 254.992 335.136 254.878 334.772 254.878C334.528 254.878 334.312 254.93 334.124 255.036C333.94 255.141 333.795 255.294 333.69 255.496C333.587 255.695 333.535 255.935 333.532 256.216ZM344.627 255.321L342.966 255.423C342.937 255.281 342.876 255.153 342.782 255.04C342.689 254.923 342.565 254.831 342.412 254.763C342.261 254.692 342.081 254.656 341.87 254.656C341.589 254.656 341.352 254.716 341.159 254.835C340.966 254.952 340.869 255.108 340.869 255.304C340.869 255.46 340.931 255.592 341.056 255.7C341.181 255.808 341.396 255.895 341.7 255.96L342.885 256.199C343.521 256.33 343.995 256.54 344.308 256.83C344.62 257.119 344.777 257.5 344.777 257.972C344.777 258.401 344.65 258.777 344.397 259.101C344.147 259.425 343.804 259.678 343.366 259.859C342.931 260.038 342.43 260.128 341.862 260.128C340.995 260.128 340.305 259.948 339.791 259.587C339.279 259.223 338.98 258.729 338.892 258.104L340.677 258.01C340.731 258.274 340.862 258.476 341.069 258.615C341.277 258.751 341.542 258.82 341.866 258.82C342.184 258.82 342.44 258.759 342.633 258.636C342.829 258.511 342.929 258.351 342.931 258.155C342.929 257.99 342.859 257.855 342.723 257.75C342.586 257.642 342.376 257.56 342.092 257.503L340.958 257.277C340.319 257.149 339.843 256.928 339.531 256.612C339.221 256.297 339.066 255.895 339.066 255.406C339.066 254.986 339.18 254.624 339.407 254.32C339.637 254.016 339.96 253.781 340.375 253.617C340.792 253.452 341.281 253.369 341.841 253.369C342.667 253.369 343.318 253.544 343.792 253.894C344.27 254.243 344.548 254.719 344.627 255.321ZM347.786 260.124C347.369 260.124 346.996 260.051 346.67 259.906C346.343 259.759 346.085 259.541 345.894 259.254C345.707 258.965 345.613 258.604 345.613 258.172C345.613 257.808 345.68 257.503 345.813 257.256C345.947 257.009 346.129 256.81 346.359 256.659C346.589 256.509 346.85 256.395 347.143 256.318C347.438 256.242 347.748 256.188 348.072 256.156C348.452 256.117 348.759 256.08 348.992 256.046C349.225 256.009 349.394 255.955 349.499 255.884C349.604 255.813 349.657 255.707 349.657 255.568V255.543C349.657 255.273 349.572 255.064 349.401 254.916C349.234 254.769 348.995 254.695 348.685 254.695C348.359 254.695 348.099 254.767 347.906 254.912C347.712 255.054 347.585 255.233 347.522 255.449L345.843 255.313C345.928 254.915 346.096 254.571 346.346 254.281C346.596 253.989 346.918 253.764 347.313 253.608C347.711 253.449 348.171 253.369 348.694 253.369C349.058 253.369 349.406 253.412 349.738 253.497C350.073 253.582 350.37 253.715 350.629 253.894C350.89 254.073 351.096 254.303 351.246 254.584C351.397 254.862 351.472 255.196 351.472 255.585V260H349.751V259.092H349.7C349.594 259.297 349.454 259.477 349.278 259.634C349.102 259.787 348.89 259.908 348.643 259.996C348.396 260.081 348.11 260.124 347.786 260.124ZM348.306 258.871C348.573 258.871 348.809 258.818 349.013 258.713C349.218 258.605 349.379 258.46 349.495 258.278C349.612 258.097 349.67 257.891 349.67 257.661V256.966C349.613 257.003 349.535 257.037 349.435 257.068C349.339 257.097 349.229 257.124 349.107 257.149C348.985 257.172 348.863 257.193 348.741 257.213C348.619 257.23 348.508 257.246 348.408 257.26C348.195 257.291 348.009 257.341 347.85 257.409C347.691 257.477 347.567 257.57 347.479 257.686C347.391 257.8 347.347 257.942 347.347 258.112C347.347 258.359 347.437 258.548 347.616 258.679C347.798 258.807 348.028 258.871 348.306 258.871ZM355.838 260.128C355.168 260.128 354.591 259.986 354.108 259.702C353.628 259.415 353.259 259.017 353 258.509C352.744 258 352.616 257.415 352.616 256.753C352.616 256.082 352.746 255.494 353.004 254.989C353.266 254.48 353.636 254.084 354.116 253.8C354.597 253.513 355.168 253.369 355.83 253.369C356.401 253.369 356.901 253.473 357.33 253.68C357.759 253.888 358.098 254.179 358.348 254.554C358.598 254.929 358.736 255.369 358.761 255.875H357.048C357 255.548 356.872 255.286 356.665 255.087C356.46 254.885 356.192 254.784 355.859 254.784C355.578 254.784 355.332 254.861 355.122 255.014C354.915 255.165 354.753 255.385 354.636 255.675C354.52 255.965 354.462 256.315 354.462 256.727C354.462 257.145 354.518 257.5 354.632 257.793C354.749 258.085 354.912 258.308 355.122 258.462C355.332 258.615 355.578 258.692 355.859 258.692C356.067 258.692 356.253 258.649 356.418 258.564C356.585 258.479 356.723 258.355 356.831 258.193C356.942 258.028 357.014 257.831 357.048 257.601H358.761C358.733 258.101 358.597 258.541 358.352 258.922C358.111 259.3 357.777 259.595 357.351 259.808C356.925 260.021 356.42 260.128 355.838 260.128ZM363.405 253.455V254.818H359.463V253.455H363.405ZM360.358 251.886H362.174V257.989C362.174 258.156 362.199 258.287 362.25 258.381C362.301 258.472 362.373 258.536 362.463 258.573C362.557 258.609 362.665 258.628 362.787 258.628C362.873 258.628 362.958 258.621 363.043 258.607C363.128 258.59 363.194 258.577 363.239 258.568L363.525 259.919C363.434 259.948 363.306 259.98 363.141 260.017C362.976 260.057 362.776 260.081 362.54 260.09C362.103 260.107 361.719 260.048 361.39 259.915C361.063 259.781 360.809 259.574 360.627 259.293C360.445 259.011 360.355 258.656 360.358 258.227V251.886ZM364.588 260V253.455H366.403V260H364.588ZM365.5 252.611C365.23 252.611 364.998 252.521 364.805 252.342C364.615 252.161 364.52 251.943 364.52 251.69C364.52 251.44 364.615 251.226 364.805 251.047C364.998 250.865 365.23 250.774 365.5 250.774C365.77 250.774 366 250.865 366.19 251.047C366.383 251.226 366.48 251.44 366.48 251.69C366.48 251.943 366.383 252.161 366.19 252.342C366 252.521 365.77 252.611 365.5 252.611ZM370.815 260.128C370.153 260.128 369.58 259.987 369.097 259.706C368.617 259.422 368.246 259.027 367.985 258.521C367.724 258.013 367.593 257.423 367.593 256.753C367.593 256.077 367.724 255.486 367.985 254.98C368.246 254.472 368.617 254.077 369.097 253.796C369.58 253.511 370.153 253.369 370.815 253.369C371.477 253.369 372.048 253.511 372.528 253.796C373.011 254.077 373.383 254.472 373.644 254.98C373.906 255.486 374.036 256.077 374.036 256.753C374.036 257.423 373.906 258.013 373.644 258.521C373.383 259.027 373.011 259.422 372.528 259.706C372.048 259.987 371.477 260.128 370.815 260.128ZM370.823 258.722C371.124 258.722 371.376 258.636 371.577 258.466C371.779 258.293 371.931 258.057 372.033 257.759C372.138 257.46 372.191 257.121 372.191 256.74C372.191 256.359 372.138 256.02 372.033 255.722C371.931 255.423 371.779 255.188 371.577 255.014C371.376 254.841 371.124 254.754 370.823 254.754C370.519 254.754 370.263 254.841 370.056 255.014C369.852 255.188 369.697 255.423 369.592 255.722C369.489 256.02 369.438 256.359 369.438 256.74C369.438 257.121 369.489 257.46 369.592 257.759C369.697 258.057 369.852 258.293 370.056 258.466C370.263 258.636 370.519 258.722 370.823 258.722ZM377.032 256.216V260H375.217V253.455H376.947V254.609H377.023C377.168 254.229 377.411 253.928 377.752 253.706C378.093 253.482 378.506 253.369 378.992 253.369C379.447 253.369 379.843 253.469 380.181 253.668C380.519 253.867 380.782 254.151 380.969 254.52C381.157 254.886 381.251 255.324 381.251 255.832V260H379.435V256.156C379.438 255.756 379.336 255.443 379.129 255.219C378.921 254.992 378.636 254.878 378.272 254.878C378.028 254.878 377.812 254.93 377.624 255.036C377.44 255.141 377.295 255.294 377.19 255.496C377.087 255.695 377.035 255.935 377.032 256.216ZM385.459 260V253.455H387.274V260H385.459ZM386.371 252.611C386.101 252.611 385.869 252.521 385.676 252.342C385.486 252.161 385.391 251.943 385.391 251.69C385.391 251.44 385.486 251.226 385.676 251.047C385.869 250.865 386.101 250.774 386.371 250.774C386.641 250.774 386.871 250.865 387.061 251.047C387.254 251.226 387.351 251.44 387.351 251.69C387.351 251.943 387.254 252.161 387.061 252.342C386.871 252.521 386.641 252.611 386.371 252.611ZM392.248 253.455V254.818H388.208V253.455H392.248ZM389.133 260V252.982C389.133 252.507 389.225 252.114 389.41 251.801C389.598 251.489 389.853 251.254 390.177 251.098C390.501 250.942 390.869 250.864 391.281 250.864C391.559 250.864 391.814 250.885 392.044 250.928C392.277 250.97 392.45 251.009 392.564 251.043L392.24 252.406C392.169 252.384 392.081 252.362 391.975 252.342C391.873 252.323 391.768 252.313 391.66 252.313C391.393 252.313 391.207 252.375 391.102 252.5C390.997 252.622 390.944 252.794 390.944 253.016V260H389.133Z" fill="white"/>
<rect x="278" y="280" width="112" height="36" rx="8" fill="#CAFC83"/>
<rect x="278" y="280" width="112" height="36" rx="8" fill="white" fill-opacity="0.8"/>
<path d="M298.817 303.224C297.962 303.22 297.227 303.01 296.61 302.592C295.997 302.175 295.525 301.57 295.193 300.778C294.865 299.986 294.703 299.033 294.706 297.919C294.706 296.809 294.87 295.863 295.198 295.08C295.53 294.298 296.002 293.703 296.615 293.296C297.232 292.885 297.966 292.679 298.817 292.679C299.669 292.679 300.402 292.885 301.015 293.296C301.631 293.707 302.105 294.303 302.437 295.085C302.768 295.864 302.932 296.809 302.929 297.919C302.929 299.036 302.763 299.991 302.432 300.783C302.104 301.575 301.633 302.18 301.02 302.597C300.407 303.015 299.673 303.224 298.817 303.224ZM298.817 301.439C299.401 301.439 299.866 301.146 300.214 300.559C300.563 299.972 300.735 299.092 300.732 297.919C300.732 297.147 300.652 296.504 300.493 295.99C300.337 295.476 300.115 295.09 299.827 294.832C299.542 294.573 299.205 294.444 298.817 294.444C298.237 294.444 297.773 294.734 297.425 295.314C297.077 295.894 296.902 296.762 296.898 297.919C296.898 298.701 296.976 299.354 297.132 299.878C297.291 300.398 297.515 300.789 297.803 301.051C298.092 301.31 298.43 301.439 298.817 301.439ZM310.713 301.588L304.772 295.657L306.075 294.34L312.021 300.286L310.713 301.588ZM306.075 301.588L304.772 300.286L310.713 294.34L312.021 295.657L306.075 301.588ZM318.409 292.818V303H316.257V294.862H316.197L313.865 296.323V294.414L316.386 292.818H318.409ZM324.513 292.679C325.037 292.679 325.541 292.767 326.025 292.943C326.512 293.118 326.946 293.398 327.327 293.783C327.712 294.167 328.015 294.678 328.237 295.314C328.462 295.947 328.577 296.724 328.58 297.646C328.58 298.511 328.482 299.283 328.287 299.962C328.094 300.639 327.818 301.214 327.456 301.688C327.095 302.162 326.659 302.523 326.149 302.771C325.638 303.017 325.068 303.139 324.439 303.139C323.759 303.139 323.159 303.008 322.639 302.747C322.118 302.481 321.699 302.122 321.381 301.668C321.066 301.21 320.876 300.697 320.809 300.126H322.932C323.015 300.498 323.189 300.786 323.454 300.992C323.719 301.194 324.047 301.295 324.439 301.295C325.101 301.295 325.605 301.006 325.95 300.43C326.295 299.85 326.469 299.056 326.472 298.048H326.402C326.25 298.347 326.044 298.604 325.786 298.819C325.527 299.031 325.231 299.195 324.896 299.311C324.565 299.427 324.212 299.485 323.837 299.485C323.237 299.485 322.702 299.344 322.231 299.063C321.761 298.781 321.389 298.393 321.118 297.899C320.846 297.405 320.71 296.842 320.71 296.209C320.707 295.526 320.864 294.918 321.182 294.384C321.5 293.851 321.944 293.433 322.515 293.131C323.088 292.827 323.754 292.676 324.513 292.679ZM324.528 294.369C324.193 294.369 323.895 294.449 323.633 294.608C323.375 294.767 323.169 294.981 323.017 295.249C322.868 295.518 322.795 295.818 322.798 296.149C322.798 296.484 322.871 296.786 323.017 297.054C323.166 297.319 323.368 297.531 323.623 297.69C323.882 297.846 324.177 297.924 324.508 297.924C324.757 297.924 324.987 297.878 325.199 297.785C325.411 297.692 325.595 297.564 325.751 297.402C325.91 297.236 326.034 297.046 326.124 296.83C326.213 296.615 326.258 296.386 326.258 296.144C326.255 295.823 326.179 295.528 326.029 295.259C325.88 294.991 325.675 294.775 325.413 294.613C325.151 294.451 324.856 294.369 324.528 294.369ZM330.919 303.129C330.591 303.129 330.309 303.013 330.074 302.781C329.842 302.546 329.726 302.264 329.726 301.936C329.726 301.611 329.842 301.333 330.074 301.101C330.309 300.869 330.591 300.753 330.919 300.753C331.237 300.753 331.516 300.869 331.754 301.101C331.993 301.333 332.112 301.611 332.112 301.936C332.112 302.155 332.056 302.355 331.943 302.538C331.834 302.717 331.69 302.861 331.511 302.97C331.332 303.076 331.134 303.129 330.919 303.129ZM335.089 303.129C334.761 303.129 334.479 303.013 334.244 302.781C334.012 302.546 333.896 302.264 333.896 301.936C333.896 301.611 334.012 301.333 334.244 301.101C334.479 300.869 334.761 300.753 335.089 300.753C335.407 300.753 335.686 300.869 335.924 301.101C336.163 301.333 336.282 301.611 336.282 301.936C336.282 302.155 336.226 302.355 336.113 302.538C336.004 302.717 335.86 302.861 335.681 302.97C335.502 303.076 335.304 303.129 335.089 303.129ZM339.259 303.129C338.931 303.129 338.649 303.013 338.414 302.781C338.182 302.546 338.066 302.264 338.066 301.936C338.066 301.611 338.182 301.333 338.414 301.101C338.649 300.869 338.931 300.753 339.259 300.753C339.577 300.753 339.855 300.869 340.094 301.101C340.333 301.333 340.452 301.611 340.452 301.936C340.452 302.155 340.396 302.355 340.283 302.538C340.174 302.717 340.029 302.861 339.85 302.97C339.672 303.076 339.474 303.129 339.259 303.129ZM345.641 303.149C344.859 303.149 344.186 302.983 343.623 302.652C343.063 302.317 342.632 301.853 342.33 301.26C342.032 300.667 341.883 299.984 341.883 299.212C341.883 298.43 342.033 297.743 342.335 297.153C342.64 296.56 343.073 296.098 343.633 295.766C344.193 295.432 344.859 295.264 345.631 295.264C346.297 295.264 346.881 295.385 347.381 295.627C347.882 295.869 348.278 296.209 348.569 296.646C348.861 297.084 349.022 297.598 349.052 298.188H347.053C346.997 297.806 346.848 297.5 346.606 297.268C346.367 297.032 346.054 296.915 345.666 296.915C345.338 296.915 345.051 297.004 344.806 297.183C344.564 297.359 344.375 297.616 344.239 297.954C344.103 298.292 344.035 298.701 344.035 299.182C344.035 299.669 344.102 300.083 344.234 300.425C344.37 300.766 344.561 301.026 344.806 301.205C345.051 301.384 345.338 301.474 345.666 301.474C345.908 301.474 346.125 301.424 346.317 301.325C346.513 301.225 346.674 301.081 346.8 300.892C346.929 300.7 347.013 300.47 347.053 300.201H349.052C349.019 300.784 348.859 301.298 348.574 301.742C348.293 302.183 347.903 302.528 347.406 302.776C346.909 303.025 346.321 303.149 345.641 303.149ZM356.761 297.541L354.822 297.661C354.789 297.495 354.718 297.346 354.609 297.213C354.499 297.077 354.355 296.97 354.176 296.89C354 296.807 353.79 296.766 353.545 296.766C353.217 296.766 352.94 296.835 352.714 296.974C352.489 297.11 352.376 297.293 352.376 297.521C352.376 297.704 352.449 297.858 352.595 297.984C352.741 298.11 352.991 298.211 353.346 298.287L354.728 298.565C355.47 298.718 356.024 298.963 356.388 299.301C356.753 299.639 356.935 300.083 356.935 300.634C356.935 301.134 356.788 301.573 356.493 301.951C356.201 302.329 355.8 302.624 355.29 302.836C354.783 303.045 354.198 303.149 353.535 303.149C352.524 303.149 351.719 302.939 351.119 302.518C350.522 302.094 350.172 301.517 350.07 300.788L352.153 300.678C352.216 300.987 352.368 301.222 352.61 301.384C352.852 301.543 353.162 301.623 353.54 301.623C353.911 301.623 354.209 301.552 354.435 301.409C354.663 301.263 354.779 301.076 354.783 300.847C354.779 300.655 354.698 300.498 354.539 300.375C354.38 300.249 354.135 300.153 353.803 300.087L352.481 299.823C351.735 299.674 351.18 299.416 350.815 299.048C350.454 298.68 350.273 298.211 350.273 297.641C350.273 297.15 350.406 296.728 350.671 296.373C350.94 296.018 351.316 295.745 351.8 295.553C352.287 295.36 352.857 295.264 353.51 295.264C354.474 295.264 355.233 295.468 355.787 295.876C356.344 296.283 356.669 296.839 356.761 297.541ZM360.447 303.144C359.959 303.144 359.525 303.06 359.144 302.891C358.763 302.718 358.461 302.465 358.239 302.13C358.02 301.792 357.911 301.371 357.911 300.867C357.911 300.443 357.989 300.087 358.145 299.798C358.3 299.51 358.513 299.278 358.781 299.102C359.05 298.927 359.354 298.794 359.696 298.705C360.041 298.615 360.402 298.552 360.78 298.516C361.224 298.469 361.582 298.426 361.854 298.386C362.125 298.343 362.323 298.28 362.445 298.198C362.568 298.115 362.629 297.992 362.629 297.83V297.8C362.629 297.485 362.53 297.241 362.331 297.069C362.135 296.897 361.857 296.81 361.496 296.81C361.114 296.81 360.811 296.895 360.586 297.064C360.36 297.23 360.211 297.439 360.138 297.69L358.18 297.531C358.279 297.067 358.474 296.666 358.766 296.328C359.058 295.987 359.434 295.725 359.895 295.543C360.359 295.357 360.896 295.264 361.506 295.264C361.93 295.264 362.336 295.314 362.724 295.413C363.115 295.513 363.461 295.667 363.763 295.876C364.068 296.085 364.308 296.353 364.483 296.681C364.659 297.006 364.747 297.395 364.747 297.849V303H362.738V301.941H362.679C362.556 302.18 362.392 302.39 362.187 302.573C361.981 302.751 361.734 302.892 361.446 302.995C361.157 303.095 360.824 303.144 360.447 303.144ZM361.053 301.683C361.365 301.683 361.64 301.621 361.878 301.499C362.117 301.373 362.304 301.204 362.44 300.992C362.576 300.779 362.644 300.539 362.644 300.271V299.46C362.578 299.503 362.487 299.543 362.371 299.58C362.258 299.613 362.13 299.644 361.988 299.674C361.845 299.701 361.703 299.725 361.56 299.749C361.418 299.769 361.288 299.787 361.172 299.803C360.924 299.84 360.707 299.898 360.521 299.977C360.336 300.057 360.191 300.165 360.089 300.3C359.986 300.433 359.934 300.599 359.934 300.798C359.934 301.086 360.039 301.306 360.248 301.459C360.46 301.608 360.728 301.683 361.053 301.683ZM366.35 303V301.737L370.089 297.109V297.054H366.48V295.364H372.639V296.741L369.129 301.255V301.31H372.769V303H366.35Z" fill="#00CC43"/>
<path d="M279.011 350V338.364H281.432V342.739H281.506C281.612 342.504 281.765 342.265 281.966 342.023C282.17 341.777 282.436 341.572 282.761 341.409C283.091 341.242 283.5 341.159 283.989 341.159C284.625 341.159 285.212 341.326 285.75 341.659C286.288 341.989 286.718 342.487 287.04 343.153C287.362 343.816 287.523 344.648 287.523 345.648C287.523 346.621 287.366 347.443 287.051 348.114C286.741 348.78 286.316 349.286 285.778 349.631C285.244 349.972 284.646 350.142 283.983 350.142C283.513 350.142 283.114 350.064 282.784 349.909C282.458 349.754 282.191 349.559 281.983 349.324C281.775 349.085 281.616 348.845 281.506 348.602H281.398V350H279.011ZM281.381 345.636C281.381 346.155 281.453 346.608 281.597 346.994C281.741 347.381 281.949 347.682 282.222 347.898C282.494 348.11 282.826 348.216 283.216 348.216C283.61 348.216 283.943 348.108 284.216 347.892C284.489 347.672 284.695 347.369 284.835 346.983C284.979 346.593 285.051 346.144 285.051 345.636C285.051 345.133 284.981 344.689 284.841 344.307C284.701 343.924 284.494 343.625 284.222 343.409C283.949 343.193 283.614 343.085 283.216 343.085C282.822 343.085 282.489 343.189 282.216 343.398C281.947 343.606 281.741 343.902 281.597 344.284C281.453 344.667 281.381 345.117 281.381 345.636ZM293.115 350.171C292.217 350.171 291.445 349.989 290.797 349.625C290.153 349.258 289.657 348.739 289.308 348.068C288.96 347.394 288.786 346.597 288.786 345.676C288.786 344.778 288.96 343.991 289.308 343.313C289.657 342.635 290.147 342.106 290.78 341.727C291.416 341.349 292.162 341.159 293.018 341.159C293.594 341.159 294.13 341.252 294.626 341.438C295.126 341.619 295.562 341.894 295.933 342.261C296.308 342.629 296.6 343.091 296.808 343.648C297.017 344.201 297.121 344.849 297.121 345.591V346.256H289.751V344.756H294.842C294.842 344.407 294.767 344.099 294.615 343.83C294.464 343.561 294.253 343.35 293.984 343.199C293.719 343.044 293.411 342.966 293.058 342.966C292.691 342.966 292.365 343.051 292.081 343.222C291.801 343.388 291.581 343.614 291.422 343.898C291.263 344.178 291.181 344.491 291.178 344.835V346.261C291.178 346.693 291.257 347.066 291.416 347.381C291.579 347.695 291.808 347.938 292.104 348.108C292.399 348.278 292.75 348.364 293.155 348.364C293.424 348.364 293.67 348.326 293.893 348.25C294.117 348.174 294.308 348.061 294.467 347.909C294.626 347.758 294.748 347.572 294.831 347.352L297.07 347.5C296.956 348.038 296.723 348.508 296.371 348.909C296.022 349.307 295.571 349.617 295.018 349.841C294.469 350.061 293.835 350.171 293.115 350.171ZM301.121 338.364V350H298.7V338.364H301.121ZM307.003 350.171C306.12 350.171 305.357 349.983 304.713 349.608C304.073 349.229 303.579 348.703 303.23 348.028C302.882 347.35 302.707 346.564 302.707 345.671C302.707 344.769 302.882 343.981 303.23 343.307C303.579 342.629 304.073 342.102 304.713 341.727C305.357 341.349 306.12 341.159 307.003 341.159C307.885 341.159 308.647 341.349 309.287 341.727C309.931 342.102 310.427 342.629 310.776 343.307C311.124 343.981 311.298 344.769 311.298 345.671C311.298 346.564 311.124 347.35 310.776 348.028C310.427 348.703 309.931 349.229 309.287 349.608C308.647 349.983 307.885 350.171 307.003 350.171ZM307.014 348.296C307.416 348.296 307.751 348.182 308.02 347.955C308.289 347.724 308.491 347.409 308.628 347.011C308.768 346.614 308.838 346.161 308.838 345.653C308.838 345.146 308.768 344.693 308.628 344.296C308.491 343.898 308.289 343.583 308.02 343.352C307.751 343.121 307.416 343.006 307.014 343.006C306.609 343.006 306.268 343.121 305.991 343.352C305.719 343.583 305.512 343.898 305.372 344.296C305.236 344.693 305.168 345.146 305.168 345.653C305.168 346.161 305.236 346.614 305.372 347.011C305.512 347.409 305.719 347.724 305.991 347.955C306.268 348.182 306.609 348.296 307.014 348.296ZM315.293 344.955V350H312.872V341.273H315.179V342.813H315.281C315.474 342.305 315.798 341.903 316.253 341.608C316.707 341.309 317.259 341.159 317.906 341.159C318.512 341.159 319.041 341.292 319.491 341.557C319.942 341.822 320.293 342.201 320.543 342.693C320.793 343.182 320.918 343.765 320.918 344.443V350H318.497V344.875C318.501 344.341 318.365 343.924 318.088 343.625C317.812 343.322 317.431 343.171 316.946 343.171C316.62 343.171 316.332 343.241 316.082 343.381C315.836 343.521 315.643 343.725 315.503 343.994C315.366 344.26 315.296 344.58 315.293 344.955ZM326.757 353.455C325.973 353.455 325.301 353.347 324.74 353.131C324.183 352.919 323.74 352.629 323.411 352.261C323.081 351.894 322.867 351.481 322.768 351.023L325.007 350.722C325.075 350.896 325.183 351.059 325.331 351.21C325.479 351.362 325.674 351.483 325.916 351.574C326.162 351.669 326.462 351.716 326.814 351.716C327.34 351.716 327.774 351.587 328.115 351.33C328.46 351.076 328.632 350.65 328.632 350.051V348.455H328.53C328.424 348.697 328.265 348.926 328.053 349.142C327.84 349.358 327.568 349.534 327.234 349.671C326.901 349.807 326.503 349.875 326.041 349.875C325.386 349.875 324.789 349.724 324.251 349.421C323.717 349.114 323.291 348.646 322.973 348.017C322.659 347.385 322.501 346.585 322.501 345.619C322.501 344.631 322.662 343.805 322.984 343.142C323.306 342.479 323.734 341.983 324.268 341.653C324.806 341.324 325.395 341.159 326.036 341.159C326.524 341.159 326.933 341.242 327.263 341.409C327.592 341.572 327.857 341.777 328.058 342.023C328.263 342.265 328.42 342.504 328.53 342.739H328.621V341.273H331.024V350.085C331.024 350.828 330.842 351.449 330.479 351.949C330.115 352.449 329.611 352.824 328.967 353.074C328.327 353.328 327.59 353.455 326.757 353.455ZM326.808 348.057C327.198 348.057 327.528 347.96 327.797 347.767C328.07 347.57 328.278 347.29 328.422 346.926C328.57 346.559 328.643 346.119 328.643 345.608C328.643 345.097 328.571 344.653 328.428 344.278C328.284 343.9 328.075 343.606 327.803 343.398C327.53 343.189 327.198 343.085 326.808 343.085C326.411 343.085 326.075 343.193 325.803 343.409C325.53 343.621 325.323 343.917 325.183 344.296C325.043 344.674 324.973 345.112 324.973 345.608C324.973 346.112 325.043 346.547 325.183 346.915C325.327 347.278 325.534 347.561 325.803 347.761C326.075 347.958 326.411 348.057 326.808 348.057ZM340.212 343.761L337.996 343.898C337.958 343.708 337.876 343.538 337.751 343.386C337.626 343.231 337.462 343.108 337.257 343.017C337.056 342.922 336.816 342.875 336.536 342.875C336.161 342.875 335.844 342.955 335.587 343.114C335.329 343.269 335.2 343.477 335.2 343.739C335.2 343.947 335.284 344.123 335.45 344.267C335.617 344.411 335.903 344.527 336.308 344.614L337.888 344.932C338.736 345.106 339.369 345.386 339.786 345.773C340.202 346.159 340.411 346.667 340.411 347.296C340.411 347.867 340.242 348.369 339.905 348.801C339.571 349.233 339.113 349.57 338.53 349.813C337.95 350.051 337.282 350.171 336.524 350.171C335.369 350.171 334.448 349.93 333.763 349.449C333.081 348.964 332.681 348.305 332.564 347.472L334.945 347.347C335.017 347.699 335.191 347.968 335.467 348.153C335.744 348.335 336.098 348.426 336.53 348.426C336.954 348.426 337.295 348.345 337.553 348.182C337.814 348.015 337.946 347.801 337.95 347.54C337.946 347.32 337.854 347.14 337.672 347C337.49 346.856 337.21 346.746 336.831 346.671L335.32 346.369C334.467 346.199 333.833 345.903 333.416 345.483C333.003 345.063 332.797 344.527 332.797 343.875C332.797 343.314 332.948 342.832 333.251 342.426C333.558 342.021 333.988 341.708 334.541 341.489C335.098 341.269 335.75 341.159 336.496 341.159C337.598 341.159 338.465 341.392 339.098 341.858C339.734 342.324 340.106 342.958 340.212 343.761ZM350.28 341.273V343.091H345.024V341.273H350.28ZM346.217 339.182H348.638V347.318C348.638 347.542 348.672 347.716 348.74 347.841C348.808 347.962 348.903 348.047 349.024 348.097C349.149 348.146 349.293 348.171 349.456 348.171C349.57 348.171 349.683 348.161 349.797 348.142C349.911 348.119 349.998 348.102 350.058 348.091L350.439 349.892C350.318 349.93 350.147 349.974 349.928 350.023C349.708 350.076 349.441 350.108 349.126 350.119C348.543 350.142 348.032 350.064 347.592 349.886C347.157 349.708 346.818 349.432 346.575 349.057C346.333 348.682 346.214 348.208 346.217 347.636V339.182ZM355.706 350.171C354.823 350.171 354.06 349.983 353.416 349.608C352.776 349.229 352.282 348.703 351.933 348.028C351.585 347.35 351.411 346.564 351.411 345.671C351.411 344.769 351.585 343.981 351.933 343.307C352.282 342.629 352.776 342.102 353.416 341.727C354.06 341.349 354.823 341.159 355.706 341.159C356.589 341.159 357.35 341.349 357.99 341.727C358.634 342.102 359.13 342.629 359.479 343.307C359.827 343.981 360.001 344.769 360.001 345.671C360.001 346.564 359.827 347.35 359.479 348.028C359.13 348.703 358.634 349.229 357.99 349.608C357.35 349.983 356.589 350.171 355.706 350.171ZM355.717 348.296C356.119 348.296 356.454 348.182 356.723 347.955C356.992 347.724 357.195 347.409 357.331 347.011C357.471 346.614 357.541 346.161 357.541 345.653C357.541 345.146 357.471 344.693 357.331 344.296C357.195 343.898 356.992 343.583 356.723 343.352C356.454 343.121 356.119 343.006 355.717 343.006C355.312 343.006 354.971 343.121 354.695 343.352C354.422 343.583 354.215 343.898 354.075 344.296C353.939 344.693 353.871 345.146 353.871 345.653C353.871 346.161 353.939 346.614 354.075 347.011C354.215 347.409 354.422 347.724 354.695 347.955C354.971 348.182 355.312 348.296 355.717 348.296ZM365.324 350V338.364H367.744V342.739H367.818C367.924 342.504 368.078 342.265 368.278 342.023C368.483 341.777 368.748 341.572 369.074 341.409C369.403 341.242 369.813 341.159 370.301 341.159C370.938 341.159 371.525 341.326 372.062 341.659C372.6 341.989 373.03 342.487 373.352 343.153C373.674 343.816 373.835 344.648 373.835 345.648C373.835 346.621 373.678 347.443 373.364 348.114C373.053 348.78 372.629 349.286 372.091 349.631C371.557 349.972 370.958 350.142 370.295 350.142C369.826 350.142 369.426 350.064 369.097 349.909C368.771 349.754 368.504 349.559 368.295 349.324C368.087 349.085 367.928 348.845 367.818 348.602H367.71V350H365.324ZM367.693 345.636C367.693 346.155 367.765 346.608 367.909 346.994C368.053 347.381 368.261 347.682 368.534 347.898C368.807 348.11 369.138 348.216 369.528 348.216C369.922 348.216 370.256 348.108 370.528 347.892C370.801 347.672 371.008 347.369 371.148 346.983C371.292 346.593 371.364 346.144 371.364 345.636C371.364 345.133 371.294 344.689 371.153 344.307C371.013 343.924 370.807 343.625 370.534 343.409C370.261 343.193 369.926 343.085 369.528 343.085C369.134 343.085 368.801 343.189 368.528 343.398C368.259 343.606 368.053 343.902 367.909 344.284C367.765 344.667 367.693 345.117 367.693 345.636ZM377.871 338.364V350H375.45V338.364H377.871ZM382.298 350.165C381.741 350.165 381.245 350.068 380.81 349.875C380.374 349.678 380.029 349.388 379.776 349.006C379.526 348.619 379.401 348.138 379.401 347.563C379.401 347.078 379.49 346.671 379.668 346.341C379.846 346.011 380.088 345.746 380.395 345.546C380.702 345.345 381.05 345.193 381.44 345.091C381.834 344.989 382.247 344.917 382.679 344.875C383.187 344.822 383.596 344.773 383.906 344.727C384.217 344.678 384.442 344.606 384.582 344.511C384.723 344.417 384.793 344.277 384.793 344.091V344.057C384.793 343.697 384.679 343.419 384.452 343.222C384.228 343.025 383.91 342.926 383.497 342.926C383.062 342.926 382.715 343.023 382.457 343.216C382.2 343.405 382.029 343.644 381.946 343.932L379.707 343.75C379.821 343.22 380.045 342.761 380.378 342.375C380.711 341.985 381.141 341.686 381.668 341.477C382.198 341.265 382.812 341.159 383.509 341.159C383.993 341.159 384.457 341.216 384.901 341.33C385.348 341.443 385.743 341.619 386.088 341.858C386.437 342.097 386.711 342.403 386.912 342.778C387.113 343.15 387.213 343.595 387.213 344.114V350H384.918V348.79H384.849C384.709 349.063 384.522 349.303 384.287 349.511C384.052 349.716 383.77 349.877 383.44 349.994C383.111 350.108 382.73 350.165 382.298 350.165ZM382.991 348.494C383.348 348.494 383.662 348.424 383.935 348.284C384.207 348.14 384.421 347.947 384.577 347.705C384.732 347.462 384.81 347.188 384.81 346.881V345.955C384.734 346.004 384.63 346.049 384.497 346.091C384.368 346.129 384.223 346.165 384.06 346.199C383.897 346.229 383.734 346.258 383.571 346.284C383.408 346.307 383.26 346.328 383.128 346.347C382.844 346.388 382.596 346.455 382.384 346.546C382.171 346.636 382.007 346.76 381.889 346.915C381.772 347.066 381.713 347.256 381.713 347.483C381.713 347.813 381.832 348.064 382.071 348.239C382.313 348.409 382.62 348.494 382.991 348.494ZM393.034 350.171C392.14 350.171 391.371 349.981 390.727 349.602C390.087 349.22 389.595 348.689 389.25 348.011C388.909 347.333 388.739 346.553 388.739 345.671C388.739 344.777 388.911 343.992 389.256 343.318C389.604 342.64 390.098 342.112 390.739 341.733C391.379 341.35 392.14 341.159 393.023 341.159C393.784 341.159 394.451 341.297 395.023 341.574C395.595 341.85 396.047 342.239 396.381 342.739C396.714 343.239 396.898 343.826 396.932 344.5H394.648C394.583 344.064 394.413 343.714 394.136 343.449C393.864 343.18 393.506 343.046 393.062 343.046C392.688 343.046 392.36 343.148 392.08 343.352C391.803 343.553 391.587 343.847 391.432 344.233C391.277 344.619 391.199 345.087 391.199 345.636C391.199 346.193 391.275 346.667 391.426 347.057C391.581 347.447 391.799 347.744 392.08 347.949C392.36 348.153 392.688 348.256 393.062 348.256C393.339 348.256 393.587 348.199 393.807 348.085C394.03 347.972 394.214 347.807 394.358 347.591C394.506 347.371 394.602 347.108 394.648 346.801H396.932C396.894 347.468 396.712 348.055 396.386 348.563C396.064 349.066 395.619 349.46 395.051 349.744C394.483 350.028 393.811 350.171 393.034 350.171ZM400.675 347.489L400.68 344.585H401.033L403.828 341.273H406.607L402.851 345.659H402.277L400.675 347.489ZM398.482 350V338.364H400.902V350H398.482ZM403.936 350L401.368 346.199L402.982 344.489L406.771 350H403.936ZM410.214 338.364V350H407.794V338.364H410.214ZM412.153 350V341.273H414.574V350H412.153ZM413.369 340.148C413.009 340.148 412.701 340.028 412.443 339.79C412.189 339.547 412.062 339.258 412.062 338.921C412.062 338.587 412.189 338.301 412.443 338.063C412.701 337.82 413.009 337.699 413.369 337.699C413.729 337.699 414.036 337.82 414.29 338.063C414.547 338.301 414.676 338.587 414.676 338.921C414.676 339.258 414.547 339.547 414.29 339.79C414.036 340.028 413.729 340.148 413.369 340.148ZM423.774 343.761L421.558 343.898C421.52 343.708 421.439 343.538 421.314 343.386C421.189 343.231 421.024 343.108 420.82 343.017C420.619 342.922 420.378 342.875 420.098 342.875C419.723 342.875 419.407 342.955 419.149 343.114C418.892 343.269 418.763 343.477 418.763 343.739C418.763 343.947 418.846 344.123 419.013 344.267C419.179 344.411 419.465 344.527 419.871 344.614L421.45 344.932C422.299 345.106 422.931 345.386 423.348 345.773C423.765 346.159 423.973 346.667 423.973 347.296C423.973 347.867 423.804 348.369 423.467 348.801C423.134 349.233 422.676 349.57 422.092 349.813C421.513 350.051 420.844 350.171 420.087 350.171C418.931 350.171 418.011 349.93 417.325 349.449C416.643 348.964 416.244 348.305 416.126 347.472L418.507 347.347C418.579 347.699 418.753 347.968 419.03 348.153C419.306 348.335 419.661 348.426 420.092 348.426C420.517 348.426 420.857 348.345 421.115 348.182C421.376 348.015 421.509 347.801 421.513 347.54C421.509 347.32 421.416 347.14 421.234 347C421.053 346.856 420.772 346.746 420.393 346.671L418.882 346.369C418.03 346.199 417.395 345.903 416.979 345.483C416.566 345.063 416.359 344.527 416.359 343.875C416.359 343.314 416.511 342.832 416.814 342.426C417.121 342.021 417.551 341.708 418.104 341.489C418.661 341.269 419.312 341.159 420.058 341.159C421.161 341.159 422.028 341.392 422.661 341.858C423.297 342.324 423.668 342.958 423.774 343.761ZM430.139 341.273V343.091H424.884V341.273H430.139ZM426.077 339.182H428.497V347.318C428.497 347.542 428.531 347.716 428.599 347.841C428.668 347.962 428.762 348.047 428.884 348.097C429.009 348.146 429.152 348.171 429.315 348.171C429.429 348.171 429.543 348.161 429.656 348.142C429.77 348.119 429.857 348.102 429.918 348.091L430.298 349.892C430.177 349.93 430.007 349.974 429.787 350.023C429.567 350.076 429.3 350.108 428.986 350.119C428.402 350.142 427.891 350.064 427.452 349.886C427.016 349.708 426.677 349.432 426.435 349.057C426.192 348.682 426.073 348.208 426.077 347.636V339.182Z" fill="white"/>
<rect x="278" y="372" width="120" height="40" rx="20" fill="#1D1919"/>
<path d="M319.869 390.383H317.691C317.651 390.101 317.57 389.851 317.447 389.632C317.325 389.41 317.167 389.221 316.975 389.065C316.783 388.91 316.561 388.79 316.309 388.707C316.06 388.625 315.79 388.583 315.499 388.583C314.972 388.583 314.513 388.714 314.121 388.976C313.73 389.234 313.427 389.612 313.212 390.109C312.996 390.603 312.888 391.203 312.888 391.909C312.888 392.635 312.996 393.245 313.212 393.739C313.43 394.233 313.735 394.605 314.126 394.857C314.518 395.109 314.97 395.235 315.484 395.235C315.772 395.235 316.039 395.197 316.284 395.121C316.533 395.045 316.753 394.934 316.945 394.788C317.138 394.639 317.297 394.458 317.423 394.246C317.552 394.034 317.641 393.792 317.691 393.52L319.869 393.53C319.812 393.997 319.671 394.448 319.446 394.882C319.224 395.313 318.924 395.699 318.546 396.041C318.172 396.379 317.724 396.647 317.204 396.846C316.687 397.041 316.102 397.139 315.449 397.139C314.541 397.139 313.729 396.934 313.013 396.523C312.3 396.112 311.737 395.517 311.322 394.738C310.911 393.959 310.706 393.016 310.706 391.909C310.706 390.799 310.915 389.854 311.332 389.075C311.75 388.296 312.317 387.703 313.033 387.296C313.749 386.885 314.554 386.679 315.449 386.679C316.039 386.679 316.586 386.762 317.089 386.928C317.597 387.093 318.046 387.335 318.437 387.653C318.828 387.968 319.146 388.354 319.391 388.812C319.64 389.269 319.799 389.793 319.869 390.383ZM324.823 397.149C324.051 397.149 323.383 396.985 322.819 396.657C322.259 396.326 321.827 395.865 321.522 395.275C321.217 394.682 321.064 393.994 321.064 393.212C321.064 392.423 321.217 391.733 321.522 391.144C321.827 390.55 322.259 390.09 322.819 389.761C323.383 389.43 324.051 389.264 324.823 389.264C325.595 389.264 326.261 389.43 326.821 389.761C327.385 390.09 327.819 390.55 328.124 391.144C328.429 391.733 328.581 392.423 328.581 393.212C328.581 393.994 328.429 394.682 328.124 395.275C327.819 395.865 327.385 396.326 326.821 396.657C326.261 396.985 325.595 397.149 324.823 397.149ZM324.833 395.509C325.184 395.509 325.477 395.409 325.713 395.21C325.948 395.008 326.125 394.733 326.245 394.385C326.367 394.037 326.429 393.641 326.429 393.197C326.429 392.753 326.367 392.357 326.245 392.009C326.125 391.661 325.948 391.385 325.713 391.183C325.477 390.981 325.184 390.88 324.833 390.88C324.478 390.88 324.18 390.981 323.938 391.183C323.699 391.385 323.519 391.661 323.396 392.009C323.277 392.357 323.217 392.753 323.217 393.197C323.217 393.641 323.277 394.037 323.396 394.385C323.519 394.733 323.699 395.008 323.938 395.21C324.18 395.409 324.478 395.509 324.833 395.509ZM332.076 392.585V397H329.958V389.364H331.977V390.711H332.066C332.235 390.267 332.519 389.916 332.917 389.657C333.314 389.395 333.797 389.264 334.363 389.264C334.894 389.264 335.356 389.38 335.75 389.612C336.145 389.844 336.451 390.176 336.67 390.607C336.889 391.034 336.998 391.545 336.998 392.138V397H334.88V392.516C334.884 392.048 334.764 391.684 334.522 391.422C334.28 391.157 333.947 391.024 333.523 391.024C333.238 391.024 332.986 391.086 332.767 391.208C332.552 391.331 332.383 391.51 332.26 391.745C332.141 391.977 332.08 392.257 332.076 392.585ZM342.774 389.364V390.955H338.061V389.364H342.774ZM339.14 397V388.812C339.14 388.258 339.247 387.799 339.463 387.435C339.682 387.07 339.98 386.797 340.358 386.614C340.736 386.432 341.165 386.341 341.645 386.341C341.97 386.341 342.267 386.366 342.535 386.416C342.807 386.465 343.009 386.51 343.142 386.55L342.764 388.141C342.681 388.114 342.578 388.089 342.456 388.066C342.336 388.043 342.214 388.031 342.088 388.031C341.776 388.031 341.559 388.104 341.437 388.25C341.314 388.393 341.253 388.593 341.253 388.852V397H339.14ZM344.068 397V389.364H346.186V397H344.068ZM345.132 388.379C344.817 388.379 344.547 388.275 344.321 388.066C344.099 387.854 343.988 387.6 343.988 387.305C343.988 387.014 344.099 386.764 344.321 386.555C344.547 386.343 344.817 386.237 345.132 386.237C345.447 386.237 345.715 386.343 345.937 386.555C346.163 386.764 346.275 387.014 346.275 387.305C346.275 387.6 346.163 387.854 345.937 388.066C345.715 388.275 345.447 388.379 345.132 388.379ZM347.882 397V389.364H349.936V390.696H350.015C350.154 390.222 350.388 389.864 350.716 389.622C351.044 389.377 351.422 389.254 351.85 389.254C351.956 389.254 352.07 389.261 352.193 389.274C352.315 389.287 352.423 389.306 352.516 389.329V391.208C352.416 391.178 352.279 391.152 352.103 391.129C351.927 391.105 351.767 391.094 351.621 391.094C351.309 391.094 351.031 391.162 350.786 391.298C350.544 391.43 350.352 391.616 350.209 391.854C350.07 392.093 350 392.368 350 392.68V397H347.882ZM353.611 397V389.364H355.629V390.711H355.719C355.878 390.264 356.143 389.911 356.514 389.652C356.885 389.394 357.33 389.264 357.847 389.264C358.37 389.264 358.816 389.395 359.184 389.657C359.552 389.916 359.797 390.267 359.92 390.711H359.999C360.155 390.273 360.437 389.924 360.844 389.662C361.255 389.397 361.741 389.264 362.301 389.264C363.014 389.264 363.592 389.491 364.036 389.945C364.484 390.396 364.707 391.036 364.707 391.864V397H362.594V392.282C362.594 391.858 362.482 391.54 362.256 391.327C362.031 391.115 361.749 391.009 361.411 391.009C361.027 391.009 360.727 391.132 360.511 391.377C360.296 391.619 360.188 391.939 360.188 392.337V397H358.135V392.237C358.135 391.863 358.027 391.564 357.812 391.342C357.6 391.12 357.32 391.009 356.972 391.009C356.736 391.009 356.524 391.069 356.335 391.188C356.15 391.304 356.002 391.468 355.893 391.68C355.783 391.889 355.729 392.135 355.729 392.416V397H353.611Z" fill="white"/>
<g clip-path="url(#clip0_77_485)">
<path d="M297 179H208V268H297V179Z" fill="#121312"/>
<path d="M279.561 223.495H272.913C270.928 223.495 269.319 225.105 269.319 227.091V236.742C269.319 238.728 267.71 240.337 265.725 240.337H239.277C237.291 240.337 235.683 241.946 235.683 243.932V250.581C235.683 252.567 237.291 254.176 239.277 254.176H267.255C269.241 254.176 270.827 252.567 270.827 250.581V245.247C270.827 243.261 272.436 241.852 274.421 241.852H279.56C281.545 241.852 283.154 240.243 283.154 238.257V227.049C283.154 225.063 281.545 223.495 279.56 223.495H279.561Z" fill="white"/>
<path d="M235.681 210.285C235.681 208.299 237.29 206.69 239.275 206.69H265.707C267.692 206.69 269.301 205.081 269.301 203.095V196.446C269.301 194.46 267.692 192.85 265.707 192.85H237.743C235.758 192.85 234.149 194.46 234.149 196.446V201.569C234.149 203.555 232.54 205.164 230.554 205.164H225.439C223.453 205.164 221.844 206.774 221.844 208.759V219.98C221.844 221.965 223.46 223.494 225.445 223.494H232.093C234.079 223.494 235.688 221.885 235.688 219.899L235.681 210.287V210.285Z" fill="white"/>
<path d="M249.371 216.505H255.757C257.838 216.505 259.526 218.195 259.526 220.276V226.663C259.526 228.744 257.836 230.433 255.757 230.433H249.371C247.29 230.433 245.602 228.743 245.602 226.663V220.276C245.602 218.194 247.292 216.505 249.371 216.505Z" fill="white"/>
</g>
<defs>
<clipPath id="clip0_77_485">
<rect x="208" y="179" width="89" height="89" rx="8.95597" fill="white"/>
</clipPath>
</defs>
</svg>
