<svg width="22" height="22" viewBox="0 0 22 22" fill="none" xmlns="http://www.w3.org/2000/svg">
<path fill-rule="evenodd" clip-rule="evenodd" d="M10.9615 0C7.98481 0 7.61123 0.0130094 6.4421 0.0661881C5.27525 0.119595 4.47878 0.304237 3.78187 0.575152C3.06098 0.854968 2.44947 1.22927 1.84024 1.83843C1.23056 2.44736 0.85607 3.05857 0.575204 3.77888C0.303472 4.47569 0.118512 5.272 0.065992 6.43782C0.0137008 7.60638 0 7.98 0 10.9553C0 13.9305 0.0132441 14.3028 0.0662204 15.4714C0.119882 16.6376 0.304614 17.4337 0.575432 18.1303C0.855613 18.8508 1.2301 19.462 1.83956 20.071C2.44856 20.6804 3.06007 21.0556 3.7805 21.3354C4.47787 21.6063 5.27457 21.7909 6.44119 21.8444C7.61032 21.8975 7.98367 21.9105 10.9602 21.9105C13.9371 21.9105 14.3095 21.8975 15.4787 21.8444C16.6455 21.7909 17.4429 21.6063 18.1403 21.3354C18.8609 21.0556 19.4715 20.6804 20.0805 20.071C20.6902 19.462 21.0647 18.8508 21.3456 18.1305C21.615 17.4337 21.8 16.6374 21.8548 15.4716C21.9073 14.303 21.921 13.9305 21.921 10.9553C21.921 7.98 21.9073 7.60661 21.8548 6.43805C21.8 5.27177 21.615 4.47569 21.3456 3.77911C21.0647 3.05857 20.6902 2.44736 20.0805 1.83843C19.4708 1.22904 18.8612 0.854739 18.1396 0.575152C17.4408 0.304237 16.6439 0.119595 15.4771 0.0661881C14.3079 0.0130094 13.9357 0 10.9581 0H10.9615ZM10.5962 1.97419H10.5965L10.9618 1.9743C13.8882 1.9743 14.2351 1.9848 15.3908 2.03729C16.4594 2.08613 17.0394 2.26461 17.4258 2.41456C17.9373 2.61313 18.302 2.85049 18.6853 3.23392C19.069 3.61736 19.3064 3.98253 19.5056 4.49378C19.6556 4.8795 19.8344 5.45921 19.883 6.52735C19.9355 7.68222 19.947 8.02914 19.947 10.9528C19.947 13.8765 19.9355 14.2234 19.883 15.3783C19.8342 16.4464 19.6556 17.0262 19.5056 17.4119C19.3069 17.9231 19.069 18.2872 18.6853 18.6704C18.3017 19.0538 17.9375 19.2912 17.4258 19.4897C17.0399 19.6404 16.4594 19.8184 15.3908 19.8672C14.2353 19.9197 13.8882 19.9311 10.9618 19.9311C8.03505 19.9311 7.68819 19.9197 6.53276 19.8672C5.4641 19.8179 4.8841 19.6394 4.49751 19.4895C3.98602 19.2909 3.62066 19.0536 3.23704 18.6701C2.85342 18.2867 2.61594 17.9224 2.41682 17.411C2.2668 17.0252 2.088 16.4455 2.03937 15.3774C1.98685 14.2225 1.97634 13.8756 1.97634 10.9501C1.97634 8.02457 1.98685 7.67948 2.03937 6.52461C2.08823 5.45648 2.2668 4.87676 2.41682 4.49059C2.61548 3.97934 2.85342 3.61416 3.23704 3.23073C3.62066 2.84729 3.98602 2.60993 4.49751 2.41091C4.88387 2.26027 5.4641 2.08225 6.53276 2.03318C7.54388 1.98753 7.93572 1.97384 9.97851 1.97156V1.9743C10.1694 1.974 10.3747 1.97409 10.5962 1.97419H10.5962H10.5962ZM15.4968 5.10736C15.4968 4.38134 16.0859 3.79318 16.8121 3.79318V3.79272C17.5382 3.79272 18.1274 4.38157 18.1274 5.10736C18.1274 5.83314 17.5382 6.42199 16.8121 6.42199C16.0859 6.42199 15.4968 5.83314 15.4968 5.10736ZM10.9613 5.32922C7.85297 5.32934 5.33284 7.84833 5.33284 10.9552C5.33284 14.0622 7.85309 16.5801 10.9616 16.5801C14.07 16.5801 16.5894 14.0622 16.5894 10.9552C16.5894 7.84825 14.0698 5.32922 10.9613 5.32922ZM14.6151 10.9552C14.6151 8.93831 12.9792 7.30347 10.9615 7.30347C8.94363 7.30347 7.30799 8.93831 7.30799 10.9552C7.30799 12.9719 8.94363 14.607 10.9615 14.607C12.9792 14.607 14.6151 12.9719 14.6151 10.9552Z" fill="white"/>
</svg>
