<svg width="249" height="26" viewBox="0 0 249 26" fill="none" xmlns="http://www.w3.org/2000/svg">
<path d="M0.152 17.128H6.904C7.01067 17.7893 7.32 18.3653 7.832 18.856C8.344 19.3467 9.02667 19.7307 9.88 20.008C10.7547 20.264 11.7787 20.392 12.952 20.392C14.5733 20.392 15.8533 20.1893 16.792 19.784C17.7307 19.3573 18.2 18.7387 18.2 17.928C18.2 17.3093 17.9333 16.8293 17.4 16.488C16.8667 16.1467 15.8427 15.9013 14.328 15.752L9.848 15.336C6.54133 15.0373 4.14133 14.2907 2.648 13.096C1.15467 11.88 0.408 10.248 0.408 8.2C0.408 6.536 0.888 5.128 1.848 3.976C2.82933 2.824 4.19467 1.96 5.944 1.384C7.71467 0.786666 9.77333 0.487999 12.12 0.487999C14.424 0.487999 16.472 0.818666 18.264 1.48C20.056 2.12 21.4747 3.03733 22.52 4.232C23.5867 5.42666 24.1627 6.81333 24.248 8.392H17.528C17.4427 7.816 17.1653 7.32533 16.696 6.92C16.248 6.49333 15.6293 6.17333 14.84 5.96C14.0507 5.72533 13.1013 5.608 11.992 5.608C10.4987 5.608 9.31467 5.81067 8.44 6.216C7.56533 6.6 7.128 7.176 7.128 7.944C7.128 8.49867 7.384 8.94667 7.896 9.288C8.42933 9.62933 9.37867 9.864 10.744 9.992L15.512 10.472C17.7947 10.6853 19.6187 11.0587 20.984 11.592C22.3493 12.104 23.3413 12.8187 23.96 13.736C24.5787 14.6533 24.888 15.7947 24.888 17.16C24.888 18.8453 24.3867 20.3173 23.384 21.576C22.3813 22.8133 20.9733 23.784 19.16 24.488C17.3467 25.1707 15.2347 25.512 12.824 25.512C10.3493 25.512 8.16267 25.1707 6.264 24.488C4.38667 23.784 2.91467 22.8027 1.848 21.544C0.781333 20.264 0.216 18.792 0.152 17.128ZM31.6933 20.392V15.048H48.2373V20.392H31.6933ZM44.4613 0.999998L55.3733 25H48.3013L39.1493 3.816H41.0693L31.8853 25H24.8133L35.7253 0.999998H44.4613ZM60.8783 10.824H78.2863V16.424H60.8783V10.824ZM78.8943 0.999998V6.6H61.1023L64.2703 3.432V25H57.6463V0.999998H78.8943ZM102.846 10.6V15.4H85.2778V10.6H102.846ZM89.7898 13L88.2218 22.632L85.5338 19.624H103.902V25H81.5978L83.4218 13L81.5978 0.999998H103.742V6.376H85.5338L88.2218 3.368L89.7898 13ZM131.941 14.6C131.877 16.0507 131.578 17.4373 131.045 18.76C130.533 20.0613 129.776 21.224 128.773 22.248C127.792 23.272 126.554 24.072 125.061 24.648C123.589 25.224 121.872 25.512 119.909 25.512C118.032 25.512 116.272 25.2453 114.629 24.712C112.986 24.1573 111.536 23.3467 110.277 22.28C109.04 21.2133 108.069 19.9013 107.365 18.344C106.682 16.7867 106.341 15.0053 106.341 13C106.341 10.9947 106.693 9.21333 107.397 7.656C108.101 6.09867 109.082 4.78667 110.341 3.72C111.621 2.65333 113.093 1.85333 114.757 1.32C116.442 0.765333 118.277 0.487999 120.261 0.487999C122.906 0.487999 125.189 0.893332 127.109 1.704C129.029 2.51466 130.576 3.624 131.749 5.032C132.922 6.44 133.68 8.072 134.021 9.928H127.333C127.12 9.11733 126.682 8.424 126.021 7.848C125.381 7.25067 124.57 6.80267 123.589 6.504C122.629 6.184 121.53 6.024 120.293 6.024C118.8 6.024 117.509 6.29067 116.421 6.824C115.333 7.336 114.49 8.11467 113.893 9.16C113.296 10.184 112.997 11.464 112.997 13C112.997 14.5573 113.317 15.8693 113.957 16.936C114.597 18.0027 115.504 18.8027 116.677 19.336C117.872 19.8693 119.269 20.136 120.869 20.136C122.426 20.136 123.802 19.9227 124.997 19.496C126.192 19.048 127.141 18.3973 127.845 17.544C128.57 16.6907 128.986 15.6667 129.093 14.472L131.941 14.6ZM121.509 17.256V12.584H134.245V25H129.541L128.613 15.496L129.861 17.256H121.509ZM144.513 14.28C144.513 15.368 144.715 16.3173 145.121 17.128C145.547 17.9173 146.166 18.5253 146.977 18.952C147.809 19.3787 148.822 19.592 150.017 19.592C151.233 19.592 152.246 19.3787 153.057 18.952C153.867 18.5253 154.475 17.9173 154.881 17.128C155.286 16.3173 155.489 15.368 155.489 14.28V0.999998H162.145V14.6C162.145 16.7973 161.633 18.7173 160.609 20.36C159.606 21.9813 158.198 23.2507 156.385 24.168C154.571 25.064 152.449 25.512 150.017 25.512C147.606 25.512 145.483 25.064 143.649 24.168C141.835 23.2507 140.417 21.9813 139.393 20.36C138.39 18.7173 137.889 16.7973 137.889 14.6V0.999998H144.513V14.28ZM169.506 20.392V15.048H186.05V20.392H169.506ZM182.274 0.999998L193.186 25H186.114L176.962 3.816H178.882L169.698 25H162.626L173.538 0.999998H182.274ZM200.035 11.496H208.771C209.837 11.496 210.669 11.2507 211.267 10.76C211.864 10.2693 212.163 9.58667 212.163 8.712C212.163 7.816 211.864 7.13333 211.267 6.664C210.669 6.17333 209.837 5.928 208.771 5.928H199.107L202.083 2.76V25H195.459V0.999998H209.699C211.533 0.999998 213.133 1.33066 214.499 1.992C215.864 2.632 216.931 3.528 217.699 4.68C218.467 5.81067 218.851 7.15467 218.851 8.712C218.851 10.2267 218.467 11.56 217.699 12.712C216.931 13.864 215.864 14.76 214.499 15.4C213.133 16.04 211.533 16.36 209.699 16.36H200.035V11.496ZM203.619 13.768H211.075L219.683 25H212.003L203.619 13.768ZM234.614 0.999998C237.452 0.999998 239.937 1.50133 242.07 2.504C244.225 3.48533 245.889 4.88267 247.062 6.696C248.257 8.488 248.854 10.5893 248.854 13C248.854 15.4107 248.257 17.5227 247.062 19.336C245.889 21.128 244.225 22.5253 242.07 23.528C239.937 24.5093 237.452 25 234.614 25H222.646V0.999998H234.614ZM229.238 22.216L226.07 19.112H235.126C236.556 19.112 237.793 18.8667 238.838 18.376C239.905 17.864 240.726 17.1493 241.302 16.232C241.878 15.3147 242.166 14.2373 242.166 13C242.166 11.7413 241.878 10.664 241.302 9.768C240.726 8.85067 239.905 8.14666 238.838 7.656C237.793 7.144 236.556 6.888 235.126 6.888H226.07L229.238 3.784V22.216Z" fill="#13190D"/>
</svg>