<svg width="36" height="36" viewBox="0 0 36 36" fill="none" xmlns="http://www.w3.org/2000/svg">
<path d="M11.688 15.96C10.632 16.848 9.648 17.808 8.688 18.744V15.432C10.776 13.056 14.64 9.792 19.344 9.792C23.208 9.792 27.072 12.048 30 15.432V18.744C28.224 16.92 26.04 14.976 23.784 13.728C25.056 16.56 24.024 19.008 22.92 20.376L23.304 20.856C24.744 19.752 26.112 18.456 27.288 17.208V20.592C24.384 23.976 20.568 26.184 16.704 26.184C12.816 26.184 8.952 23.976 6 20.592V17.208C8.952 20.256 12.816 23.496 16.704 23.496C17.52 23.496 18.36 23.352 19.128 23.088L18.984 22.656C14.424 23.16 11.4 19.56 11.688 15.96ZM6 30H30V21.168C30 21.168 28.896 22.392 27.288 23.496V27.312H8.688V25.728C7.128 24.72 6 23.496 6 23.496V30ZM6 14.808C6 14.808 7.128 13.608 8.688 12.528V8.688H27.288V10.248C28.92 11.28 30 12.528 30 12.528V8.688H27.288V6H6V14.808ZM17.472 14.832C18.48 14.832 19.32 15.72 19.32 16.704H19.824C19.824 15.72 20.664 14.832 21.696 14.832V14.304C20.664 14.304 19.824 13.464 19.824 12.48H19.32C19.32 13.464 18.48 14.304 17.472 14.304V14.832Z" fill="#1F1F33"/>
</svg>
