<svg width="24" height="24" viewBox="0 0 24 24" fill="none" xmlns="http://www.w3.org/2000/svg">
<path fill-rule="evenodd" clip-rule="evenodd" d="M22.45 6.12193C21.9332 6.81099 21.3085 7.41206 20.6 7.90193V8.45193C20.6028 10.0701 20.2837 11.6728 19.6612 13.1664C19.0386 14.6601 18.1252 16.015 16.974 17.1523C15.8227 18.2895 14.4568 19.1864 12.9556 19.7907C11.4545 20.3949 9.84807 20.6945 8.23002 20.6719C6.34044 20.6782 4.47507 20.247 2.78002 19.4119C2.7353 19.3924 2.69726 19.3602 2.67061 19.3194C2.64396 19.2785 2.62985 19.2307 2.63002 19.1819V19.0719C2.63002 19.003 2.65741 18.9368 2.70617 18.8881C2.75493 18.8393 2.82106 18.8119 2.89002 18.8119C4.74742 18.7507 6.53856 18.1071 8.01002 16.9719C7.18622 16.9554 6.3839 16.7062 5.69561 16.2533C5.00733 15.8003 4.46112 15.162 4.12002 14.4119C4.10272 14.3708 4.0963 14.326 4.10136 14.2816C4.10642 14.2373 4.12279 14.1951 4.14891 14.1589C4.17502 14.1228 4.20999 14.0939 4.25047 14.0752C4.29094 14.0565 4.33555 14.0484 4.38002 14.0519C4.89097 14.1033 5.40703 14.0557 5.90001 13.9119C4.99549 13.7243 4.17395 13.2541 3.55389 12.5694C2.93382 11.8846 2.54728 11.0206 2.45002 10.1019C2.44653 10.0575 2.45454 10.0129 2.47327 9.97238C2.492 9.93191 2.52084 9.89694 2.55699 9.87082C2.59315 9.84471 2.63541 9.82834 2.67972 9.82328C2.72404 9.81822 2.7689 9.82464 2.81002 9.84193C3.30806 10.0616 3.8457 10.1773 4.39002 10.1819C3.59924 9.66316 3.00256 8.89706 2.69319 8.00333C2.38383 7.10961 2.37919 6.13858 2.68002 5.24193C2.71141 5.15386 2.76513 5.07544 2.83593 5.01436C2.90672 4.95328 2.99217 4.91163 3.08389 4.89348C3.17562 4.87534 3.27049 4.88132 3.35921 4.91085C3.44792 4.94038 3.52746 4.99244 3.59002 5.06193C5.7845 7.39641 8.79975 8.78752 12 8.94194C11.918 8.61499 11.8777 8.27899 11.88 7.94194C11.8947 7.07778 12.1658 6.23747 12.659 5.52773C13.1522 4.81799 13.8452 4.27085 14.65 3.95578C15.4548 3.64072 16.3351 3.57196 17.1791 3.75823C18.023 3.94449 18.7926 4.37739 19.39 5.00193C20.2229 4.84334 21.0281 4.56371 21.78 4.17193C21.807 4.15509 21.8382 4.14616 21.87 4.14616C21.9018 4.14616 21.933 4.15509 21.96 4.17193C21.9769 4.19893 21.9858 4.23011 21.9858 4.26193C21.9858 4.29376 21.9769 4.32494 21.96 4.35193C21.5958 5.18554 20.9805 5.8847 20.2 6.35193C20.8835 6.27271 21.555 6.11155 22.2 5.87193C22.2266 5.85388 22.2579 5.84422 22.29 5.84422C22.3221 5.84422 22.3535 5.85388 22.38 5.87193C22.4025 5.88221 22.4225 5.89727 22.4385 5.91605C22.4546 5.93484 22.4663 5.9569 22.473 5.9807C22.4797 6.00449 22.4811 6.02946 22.4771 6.05385C22.4731 6.07825 22.4639 6.10148 22.45 6.12193Z" fill="white"/>
</svg>
