<svg width="24" height="24" viewBox="0 0 24 24" fill="none" xmlns="http://www.w3.org/2000/svg">
<rect x="8.78418" y="8.22278" width="7.11802" height="7.57388" fill="#00CC43"/>
<path d="M9.40186 5.01023C9.30577 5.01997 9.04497 5.02775 8.82339 5.0297C8.60181 5.03165 8.27239 5.04138 8.08806 5.04917C7.9057 5.05696 7.52921 5.07448 7.25469 5.08616C6.98016 5.09785 6.70564 5.11342 6.64681 5.11732C6.58798 5.12316 6.32719 5.14068 6.06835 5.15626C5.80951 5.17183 5.55852 5.1913 5.5095 5.20298C5.46047 5.21272 5.32909 5.2283 5.21536 5.23414C5.10163 5.23998 4.99182 5.25361 4.97025 5.2614C4.94868 5.27113 4.82515 5.29255 4.69573 5.30812C4.34473 5.35096 4.0604 5.4191 3.92118 5.49114C3.89373 5.50477 3.86431 5.51645 3.85647 5.51645C3.79764 5.51645 3.41919 5.74036 3.26428 5.86497C3.12898 5.97595 2.84269 6.28163 2.75445 6.41403C2.61915 6.61457 2.45051 6.95335 2.45051 7.02344C2.45051 7.03902 2.44267 7.05654 2.43287 7.06238C2.42306 7.07017 2.40345 7.13832 2.38973 7.2162C2.376 7.29213 2.36031 7.36417 2.35247 7.37585C2.34463 7.38559 2.33286 7.43816 2.32502 7.49267C2.31717 7.54524 2.30345 7.61144 2.29364 7.6387C2.27599 7.68348 2.24658 7.88013 2.1956 8.28121C2.18579 8.36104 2.16619 8.50122 2.15442 8.59273C2.12697 8.79912 2.08383 9.3287 2.05834 9.79988C2.04657 9.99848 2.02892 10.2438 2.01912 10.345C1.99363 10.5884 1.99363 13.4116 2.01912 13.655C2.02892 13.7562 2.04657 14.0015 2.05834 14.2001C2.08383 14.6713 2.12697 15.2009 2.15442 15.4073C2.16619 15.4988 2.18579 15.639 2.1956 15.7188C2.24658 16.1199 2.27599 16.3165 2.29364 16.3613C2.30345 16.3886 2.31717 16.4528 2.32502 16.5073C2.33286 16.5599 2.34463 16.6125 2.35247 16.6242C2.36031 16.6339 2.376 16.7079 2.38973 16.7838C2.40345 16.8617 2.42306 16.9298 2.43287 16.9376C2.44267 16.9435 2.45051 16.961 2.45051 16.9766C2.45051 17.0467 2.61915 17.3854 2.75445 17.586C2.84269 17.7184 3.12898 18.0241 3.26428 18.135C3.43292 18.2713 3.74666 18.4543 3.88196 18.4933C3.90941 18.5011 3.94079 18.5147 3.95059 18.5225C4.01922 18.5712 4.36434 18.651 4.69573 18.6919C4.82515 18.7075 4.94868 18.7289 4.97025 18.7386C4.99182 18.7464 5.10163 18.76 5.21536 18.7659C5.32909 18.7717 5.46047 18.7873 5.5095 18.797C5.55852 18.8087 5.80951 18.8282 6.06835 18.8438C6.32719 18.8593 6.57034 18.8749 6.60759 18.8807C6.64485 18.8846 6.86251 18.8944 7.08801 18.9022C7.31547 18.908 7.58804 18.9216 7.69588 18.9314C8.63515 19.0229 15.3649 19.0229 16.3042 18.9314C16.412 18.9216 16.6865 18.908 16.9121 18.9022C17.1395 18.8944 17.3552 18.8846 17.3925 18.8807C17.4297 18.8749 17.6729 18.8593 17.9317 18.8438C18.1905 18.8282 18.4415 18.8087 18.4906 18.797C18.5396 18.7873 18.671 18.7717 18.7847 18.7659C18.8984 18.76 19.0082 18.7464 19.0298 18.7386C19.0514 18.7289 19.1749 18.7075 19.3043 18.6919C19.6357 18.651 19.9808 18.5712 20.0495 18.5225C20.0612 18.5147 20.0906 18.5011 20.1181 18.4933C20.2534 18.4543 20.5671 18.2713 20.7358 18.135C20.8711 18.0241 21.1574 17.7184 21.2456 17.586C21.3809 17.3854 21.5495 17.0467 21.5495 16.9766C21.5495 16.961 21.5574 16.9435 21.5672 16.9376C21.577 16.9298 21.5966 16.8617 21.6103 16.7838C21.6241 16.7079 21.6397 16.6339 21.6476 16.6242C21.6554 16.6125 21.6672 16.5599 21.675 16.5073C21.6829 16.4528 21.6966 16.3886 21.7064 16.3613C21.7241 16.3165 21.7535 16.1199 21.8045 15.7188C21.8143 15.639 21.8339 15.4988 21.8456 15.4073C21.8731 15.2009 21.9162 14.6713 21.9417 14.2001C21.9535 14.0015 21.9711 13.7562 21.9809 13.655C22.0064 13.4116 22.0064 10.5884 21.9809 10.345C21.9711 10.2438 21.9535 9.99848 21.9417 9.79988C21.9162 9.3287 21.8731 8.79912 21.8456 8.59273C21.8339 8.50122 21.8143 8.36104 21.8045 8.28121C21.7535 7.88013 21.7241 7.68348 21.7064 7.6387C21.6966 7.61144 21.6829 7.54524 21.675 7.49267C21.6672 7.43816 21.6554 7.38559 21.6476 7.37585C21.6397 7.36417 21.6241 7.29213 21.6103 7.2162C21.5966 7.13832 21.577 7.07017 21.5672 7.06238C21.5574 7.05654 21.5495 7.03902 21.5495 7.02344C21.5495 6.95335 21.3809 6.61457 21.2456 6.41403C21.1574 6.28163 20.8711 5.97595 20.7358 5.86497C20.5809 5.74036 20.2024 5.51645 20.1436 5.51645C20.1357 5.51645 20.1063 5.50477 20.0789 5.49114C19.9397 5.4191 19.6553 5.35096 19.3043 5.30812C19.1749 5.29255 19.0514 5.27113 19.0298 5.2614C19.0082 5.25361 18.8984 5.23998 18.7847 5.23414C18.671 5.2283 18.5396 5.21272 18.4906 5.20298C18.4415 5.1913 18.1905 5.17183 17.9317 5.15626C17.6729 5.14068 17.4297 5.1251 17.3925 5.11926C17.3552 5.11537 17.1395 5.10563 16.9121 5.09785C16.6865 5.09201 16.4081 5.07838 16.2944 5.06669C15.8532 5.02581 14.3962 5.00244 12.0392 5.0005C10.6862 4.99855 9.4999 5.00244 9.40186 5.01023ZM11.2059 9.74536C11.6706 10.0082 12.451 10.4482 12.9413 10.7247C13.4315 11.0012 14.0374 11.3439 14.2845 11.484C14.5335 11.6262 14.8355 11.7956 14.957 11.8618C15.0767 11.9299 15.1767 11.9903 15.1767 12C15.1767 12.0097 15.0767 12.0701 14.957 12.1382C14.8355 12.2044 14.5335 12.3738 14.2845 12.516C14.0374 12.6561 13.4315 12.9988 12.9413 13.2753C12.0216 13.7951 10.5156 14.644 10.1627 14.8446L9.96071 14.9575V12V9.04249L10.1627 9.15542C10.2725 9.21967 10.7431 9.48446 11.2059 9.74536Z" fill="white"/>
</svg>
